<svg width="48" height="48" viewBox="0 0 48 48" fill="none" xmlns="http://www.w3.org/2000/svg">
<g clip-path="url(#clip0_3033_19182)">
<path d="M9.00585 20.2877C8.01444 19.7078 7.63675 18.95 7.57184 18.6436C5.15705 20.8286 7.1499 23.4021 8.44821 24.4157C8.40571 23.8641 8.80226 21.4338 9.00585 20.2877Z" fill="#5C95FF"/>
<path d="M39.2765 28.6069C40.2747 29.1974 40.6219 29.703 40.8875 30.4897C43.3368 28.2952 41.1844 25.3497 39.8784 24.3198C39.9186 24.877 39.4878 27.4505 39.2765 28.6069Z" fill="#5C95FF"/>
<path d="M24.1063 40.3331C32.7545 40.3331 39.7653 33.3402 39.7653 24.7139C39.7653 16.0877 32.7545 9.09473 24.1063 9.09473C15.4581 9.09473 8.44738 16.0877 8.44738 24.7139C8.44738 33.3402 15.4581 40.3331 24.1063 40.3331Z" fill="url(#paint0_radial_3033_19182)"/>
<mask id="mask0_3033_19182" style="mask-type:luminance" maskUnits="userSpaceOnUse" x="8" y="9" width="32" height="32">
<path d="M39.6427 26.6414C40.7041 18.0739 34.6072 10.2697 26.025 9.21013C17.4428 8.15059 9.62508 14.237 8.56372 22.8044C7.50237 31.3719 13.5992 39.1762 22.1815 40.2357C30.7637 41.2952 38.5813 35.2088 39.6427 26.6414Z" fill="white"/>
</mask>
<g mask="url(#mask0_3033_19182)">
<path d="M25.2437 25.5503C25.5611 25.4458 26.032 25.5885 26.3913 25.4632C26.5412 25.411 25.4948 24.8678 25.2437 25.0384C25.1321 25.115 25.4111 25.303 25.4111 25.3831C25.4111 25.498 24.9681 25.3518 24.9228 25.4737C24.8739 25.599 25.2367 25.5538 25.2472 25.5503C25.4041 25.498 25.0797 25.606 25.2472 25.5503H25.2437Z" fill="white"/>
<path d="M33.9464 30.8917C33.5801 30.9404 33.465 30.5052 33.1267 30.4565C32.9627 30.4321 32.1465 30.3764 32.0838 30.554C32.2058 30.2023 31.8291 30.0177 31.4664 30.0247C31.4245 30.0247 31.0548 30.4669 31.0025 30.3659C30.9362 30.2371 31.5047 30.0142 31.0757 29.9272C30.9292 29.8993 30.5944 30.1013 30.6258 30.1187C30.4444 30.0247 30.7932 29.8715 30.8246 29.8297C31.0338 29.5442 30.9188 29.5755 30.7583 29.3944C30.6746 29.3004 30.7304 28.994 30.6048 28.9487C30.392 28.8652 30.2526 28.6736 30.0153 28.5866C29.8898 28.5413 29.5236 28.4996 29.3875 28.5065C29.234 28.5135 29.1678 28.3638 29.0492 28.3672C29.0212 28.3672 28.3585 27.6499 28.226 27.9181C28.4283 27.5106 27.8458 27.7265 27.8946 27.542C27.9399 27.5176 27.9818 27.4897 28.0202 27.4549C27.8981 27.3609 27.6469 27.4514 27.5388 27.4897C27.2598 27.5942 27.04 27.3818 26.8447 27.4619C26.7296 27.5072 26.0738 27.1032 26.0704 27.1206C26.046 27.3017 25.9483 27.2564 25.7878 27.3504C25.6413 27.4375 25.9134 27.925 25.6588 27.8275C25.3274 27.6987 25.7146 27.2286 25.7774 27.1102C25.875 26.9222 25.3483 27.1833 25.3204 27.2077C25.1426 27.3539 24.9332 27.2739 24.7937 27.3644C24.6124 27.4828 24.4763 27.8728 24.3159 28.0608C24.3089 28.0678 23.8066 27.643 23.5904 27.723C23.102 27.9146 22.959 27.8797 22.6311 27.4166C22.5788 27.3435 22.6137 26.7063 22.6835 26.6297C23.2939 25.9646 21.3824 26.1805 21.3789 26.1735C21.351 26.1526 21.5393 25.5189 21.5568 25.5363C21.6789 25.4145 21.665 25.1916 21.6615 25.0349C21.6545 24.6484 21.9719 24.8747 21.6265 24.6588C21.4382 24.5404 20.901 24.6832 20.922 24.9583C20.9325 25.1184 20.6778 25.31 20.6918 25.4075C20.6674 25.2577 19.5861 25.7626 19.5233 25.115C19.4954 24.8364 19.1884 24.6658 19.1745 24.3071C19.164 24.0982 19.2303 23.4854 19.2756 23.5132C19.2861 23.3565 19.2582 23.2451 19.2686 23.0954C19.2756 22.9422 19.443 22.9178 19.443 22.8029C19.443 22.7506 19.9907 22.5139 20.0326 22.4442C20.1093 22.3015 21.2359 22.5487 21.2743 22.6009C21.0999 22.3398 21.0964 22.2875 21.4626 22.2736C21.5533 22.2736 21.9545 22.1901 22.1009 22.3049C22.4044 22.5417 22.4707 22.2806 22.8299 22.6393C22.8648 22.6741 22.9939 23.2973 22.9974 23.374C23.0253 23.7117 23.4543 23.8336 23.5101 23.3879C23.5624 22.9631 23.1474 22.58 23.1613 22.1552C23.1683 21.9533 23.6601 21.3091 23.8833 21.3091C24.0578 21.3091 23.9845 21.2394 24.117 21.1454C24.431 20.9191 24.1763 20.9992 24.3298 20.8216C24.3786 20.7659 24.6333 20.926 24.6682 20.7136C24.6193 20.6754 24.567 20.6544 24.5042 20.6475C24.4658 20.5988 24.1833 19.6481 24.4903 19.6481C24.3786 19.6481 24.6263 20.2575 24.5635 20.2993C24.8356 20.1287 24.5879 19.8571 24.6682 19.7213C24.5949 19.8466 25.289 19.5855 25.0204 19.4183C24.9751 19.3905 25.4913 19.3104 25.5227 19.2512C25.5576 19.1816 25.1426 19.2756 25.1426 19.2407C25.1426 19.1606 25.725 19.0945 25.6657 19.0179C25.8959 19.3069 25.8227 18.6732 25.8681 18.5861C25.9727 18.3911 27.3923 17.7818 27.3853 17.7818C27.4481 17.8409 27.3226 17.9106 27.347 17.9315C27.3923 17.9698 27.5877 18.0185 27.6295 17.9977C27.4203 18.1056 27.2877 17.9907 27.0889 18.1822C26.7819 18.4816 27.3051 18.5095 27.5005 18.2553C27.5144 18.2379 28.6445 17.827 28.5504 17.7644C28.4143 17.6634 28.4004 17.7818 28.4353 17.5798C28.4248 17.646 28.0236 17.9176 27.9051 17.9106C27.7028 17.8967 27.5877 17.7852 27.4237 17.6878C27.197 17.552 27.3888 17.4162 27.347 17.2803C27.3156 17.1759 27.1795 17.3326 27.1307 17.3082C27.1586 17.3187 27.7865 16.7058 27.0086 16.8416C26.7924 16.8799 26.5587 16.9461 26.3633 17.0505C26.2134 17.1306 26.0145 17.4823 25.8366 17.4788C25.882 17.4788 26.3599 16.8869 26.4436 16.8312C26.6878 16.657 26.9528 16.5212 27.2807 16.5073C27.6435 16.4934 28.0132 16.4969 28.3725 16.5212C28.4701 16.5212 29.5131 16.0268 29.4782 15.9676C29.4259 15.9397 29.3735 15.9154 29.3177 15.8945C29.3317 15.905 29.5654 15.7482 29.4538 15.6682C29.2026 15.4836 29.3212 15.6159 29.091 15.5846C28.9445 15.5637 29.2933 15.3165 28.8992 15.3896C28.8817 15.3896 28.4562 15.6194 28.4108 15.5916C28.2504 15.4906 29.0247 15.2816 29.0247 15.2782C29.0003 15.3165 27.8248 14.7106 27.7865 14.5992C27.7865 14.6026 28.2155 14.4634 27.8597 14.2127C27.7516 14.1326 27.2563 13.3874 27.2389 13.4013C27.1203 13.4849 26.9982 13.8261 26.9598 13.9585C27.0051 13.7983 26.6528 14.0699 26.7087 14.049C26.5691 14.1082 26.4366 14.0176 26.3633 13.9167C26.332 13.8714 26.1506 13.76 26.0808 13.7077C25.9762 13.6242 26.1227 13.3526 26.1192 13.2725C26.1192 13.2203 25.603 13.2586 25.582 13.1297C25.5576 12.973 25.1146 12.7676 24.9647 12.8198C24.6751 12.9243 24.3507 12.6388 24.0996 12.8337C24.1519 12.7919 24.1345 13.3143 24.0996 13.2864C24.3786 13.5267 24.0996 13.6625 23.9845 13.8888C23.8903 14.0594 24.8007 14.3937 24.3263 14.8011C23.9252 15.1493 23.5799 14.9926 23.8415 15.5358C23.9008 15.6612 23.831 16.1348 23.8624 16.1487C23.688 16.079 23.6566 16.2671 23.6008 16.2427C23.4299 16.1731 23.4857 16.1069 23.3566 16.0163C23.2799 15.9607 23.0218 15.7692 23.0253 15.6682C23.0253 15.5811 23.0846 15.1284 23.0288 15.0692C22.802 14.822 21.8917 15.1389 21.7417 14.6862C21.637 14.3798 20.8383 14.4947 20.6255 14.5295C20.6987 14.5156 20.6046 13.9619 20.4162 13.9933C19.9384 14.0734 20.2035 13.5162 20.322 13.3247C20.4267 13.1506 20.5732 13.067 20.7057 12.9277C20.7127 12.9208 20.7999 12.8094 20.7964 12.8059C20.7232 12.7432 21.208 12.7606 21.1766 12.6039C21.1661 12.5656 20.4965 12.4229 20.5139 12.3985C20.629 12.207 21.1661 12.6771 21.351 12.3115C21.2673 12.4751 22.2998 12.1234 22.0452 11.9946C21.951 11.9458 21.358 12.019 21.4068 11.817C21.3789 11.918 22.659 11.9702 22.1567 11.6464C22.1358 11.6324 22.6521 11.6359 22.7148 11.6359C22.7951 11.6359 22.5474 11.4932 22.5509 11.4757C22.5404 11.521 22.959 11.6081 23.1055 11.5141C23.5032 11.2529 23.0985 11.2842 23.0915 11.0231C23.0915 11.037 23.5276 10.9151 23.3601 10.7933C23.2485 10.7097 22.9904 10.6923 22.8509 10.6435C22.5684 10.5495 22.394 10.7793 22.516 10.7828C22.7323 10.7898 22.4986 10.9221 22.4532 10.936C22.3381 10.9674 22.4009 11.1275 22.2718 11.1833C22.1916 11.2181 22.2544 11.0753 22.1812 11.0823C22.1742 11.0823 22.1951 11.5315 22.0172 11.427C21.7487 11.2703 21.9056 11.1484 21.9056 10.9709C21.9056 10.8977 21.658 10.7654 21.5673 10.8316C21.5184 10.8664 21.4312 11.0753 21.365 11.0858C21.1522 11.1171 21.4347 10.7724 21.4277 10.7828C21.5045 10.6923 21.0162 10.7306 21.0266 10.7376C20.8801 10.6505 21.1522 10.5878 21.1801 10.5635C21.222 10.5147 20.5871 10.1421 20.5802 10.1073C20.5732 10.0829 20.7546 9.99588 20.7685 9.98543C20.9569 9.84963 20.7685 9.95409 20.7685 9.86356C20.772 10.0028 21.6998 9.64767 21.5184 9.51883C21.4731 9.48402 21.0336 9.47705 20.9534 9.47705C20.8418 9.47705 20.7266 9.49098 20.615 9.51187C20.3813 9.55714 20.5976 9.55017 20.5557 9.61982C20.5104 9.62678 20.4651 9.62678 20.4232 9.61982C20.4092 9.61633 20.3883 10.2431 20.3744 10.2814C20.3395 10.3441 20.1965 10.1978 20.1267 10.3545C20.0848 10.4485 20.2383 10.4555 20.1651 10.5217C19.8965 10.7584 20.636 10.7968 20.6115 10.8211C20.5802 10.849 20.493 11.037 20.5104 11.0266C20.5418 10.9778 20.5871 10.943 20.6464 10.9151C20.8243 10.9778 20.493 11.1833 20.4162 11.2076C20.1093 11.3086 20.4336 11.3574 20.2697 11.4479C20.179 11.4966 19.9628 11.42 20.0569 11.3191C20.2557 11.0997 19.9419 11.2564 19.8581 11.145C19.8581 11.145 20.207 11.0509 20.2697 11.0509C20.7057 11.0649 20.1302 10.7759 20.1198 10.8803C20.1755 10.8455 20.2348 10.8351 20.3011 10.8455C20.2453 10.8559 19.9628 10.748 19.8616 10.7271C19.8337 10.7201 19.4954 10.9151 19.4605 10.95C19.3349 11.0579 20.036 10.9465 19.5965 11.1589C19.4256 11.2425 19.7395 11.333 19.3628 11.326C19.157 11.326 18.9408 11.4305 18.742 11.4026C18.5885 11.3783 18.5641 11.3156 18.3897 11.3295C18.1874 11.3434 18.1734 11.1206 18.0583 11.1206C17.9746 11.1206 17.3362 11.3469 17.4584 11.3783C17.57 11.4061 17.9711 11.1728 18.0304 11.2216C18.0304 11.2216 17.4793 11.3922 17.6467 11.629C17.7653 11.7961 17.5909 11.6568 17.5735 11.7648C17.549 11.9319 17.5002 11.615 17.5072 11.6638C17.4409 11.2076 16.2968 11.824 16.0631 11.6185C15.9794 11.5454 16.3596 11.4618 16.3456 11.427C16.2584 11.2111 15.519 11.2877 15.2818 11.2773C15.1004 11.2668 15.0028 11.1554 14.8004 11.1902C14.7656 11.1937 14.2982 11.4409 14.3435 11.3574C14.3645 11.3191 14.4726 11.145 14.368 11.1484C14.2563 11.1484 14.1238 11.5524 13.9912 11.3852C13.9842 11.3783 13.8064 10.9813 13.7227 11.1136C13.7505 11.0684 13.6459 11.34 13.6529 11.2808C13.6355 11.4549 13.4645 11.3643 13.4157 11.3852C13.2797 11.4444 13.1018 11.528 12.9762 11.6046C12.9762 11.6046 12.589 11.8971 12.6692 11.7926C12.7878 11.6324 13.4087 11.4235 13.4471 11.3051C13.4854 11.1658 12.6274 11.6777 12.596 11.6533C12.5507 11.6185 12.6169 11.5454 12.4913 11.6394C12.4181 11.6951 12.303 11.6707 12.2437 11.7613C12.1984 11.8309 12.3658 11.8274 12.296 11.8936C12.1635 12.019 11.6786 11.7474 11.5322 11.7787C11.1659 11.8518 10.8345 11.7299 10.4752 11.8727C10.402 11.8971 9.67301 11.9389 9.67999 11.9389C9.70788 11.7195 9.22303 12.0364 9.18816 11.9946C9.20212 11.9563 9.22303 11.9249 9.25096 11.9006C9.27187 11.7578 8.64753 12.2592 8.658 12.2383C8.68589 12.2488 8.69287 12.2766 8.67891 12.3219C8.61959 12.4159 8.3964 12.4229 8.29872 12.597C8.14177 12.8755 8.1522 12.9974 7.91154 13.1019C7.79296 13.1541 8.13479 13.4431 8.14521 13.4814C8.18707 13.6068 8.26035 13.4814 8.34756 13.4675C8.30221 13.4744 8.50799 13.6764 8.49402 13.5998C8.47661 13.5337 8.08595 14.1116 8.1278 13.7287C8.12082 13.7077 7.73364 14.0977 7.72317 14.1987C7.70576 14.2719 7.87667 14.2231 7.86619 14.2544C7.77201 14.4634 8.00573 14.4007 8.0615 14.3624C8.08595 14.345 8.19405 14.3415 8.21151 14.2997C8.26035 14.1918 8.45566 14.0803 8.41381 14.1569C8.34756 14.2788 8.44518 14.5051 8.29173 14.5469C8.18363 14.5783 8.26035 14.5853 8.17664 14.728C8.13479 14.8081 8.09293 14.7036 8.05457 14.7245C8.04758 14.7245 7.7511 15.4348 7.92202 15.3583C7.92895 15.3548 7.97779 15.5637 7.99874 15.6055C8.07198 15.7517 8.19754 15.501 8.20802 15.5115C8.24988 15.5706 8.20104 15.9223 8.24289 15.9084C8.3057 15.891 8.3057 15.8109 8.35798 15.7657C8.44174 15.689 8.45217 15.8248 8.51149 15.8422C8.48704 15.8353 8.67192 15.5881 8.73822 15.6159C8.82193 15.6542 8.46963 16.3123 8.44174 16.3646C8.38941 16.4307 8.06849 16.9043 8.09992 16.9496C8.09992 16.967 8.51498 16.4829 8.54985 16.3889C8.61959 16.0825 9.11841 15.8248 9.15678 15.4731C9.12889 15.4488 9.10095 15.4348 9.06608 15.4314C9.06259 15.4314 9.37304 14.9509 9.40791 14.8742C9.51951 14.6026 9.68349 14.7558 9.68349 14.7593C9.62417 14.8359 9.49511 14.721 9.46024 14.9439C9.46024 14.9439 9.38002 15.2921 9.4358 15.2085C9.39743 15.2294 9.36955 15.2677 9.35209 15.32C9.4114 15.3861 9.53697 15.2155 9.59279 15.1493C9.71137 15.0135 9.78112 15.0484 9.89276 14.9717C9.9451 14.9334 9.7881 14.6479 9.95203 14.627C10.0079 14.62 10.1823 14.728 10.1997 14.7141C10.2067 14.7106 10.0392 14.7802 10.0985 14.829C10.0985 14.829 10.3706 14.7001 10.3706 14.6966C10.4194 14.8708 10.702 14.728 10.8589 14.6793C10.8973 14.6653 10.9357 14.7628 10.981 14.7628C11.0403 14.7628 11.145 14.6096 11.1833 14.6444C11.274 14.7245 11.0368 14.7698 11.2042 14.822C11.2531 14.8359 11.5775 15.0692 11.5984 15.0379C11.6089 14.9996 11.6159 14.9648 11.6194 14.9299C11.6333 14.8951 11.8112 15.017 11.8217 15.0031C11.8565 14.9474 11.7798 14.7872 11.8217 14.7558C11.8809 14.7071 11.8949 14.9509 11.8949 14.9439C11.8705 15.1911 11.731 15.1075 11.7414 15.0727C11.7519 15.0449 11.4659 15.2851 11.7345 15.2956C11.7588 15.2956 11.7903 15.5567 11.8356 15.5254C11.8949 15.4836 11.8042 15.1528 11.8879 15.1737C11.9019 15.2155 11.9054 15.2608 11.8949 15.3095C11.9751 15.4279 12.0379 15.0066 12.0239 15.0379C12.0902 14.8916 12.0344 15.3234 12.0344 15.3025C12.0344 15.2782 11.7728 15.5811 11.9263 15.5776C11.8879 15.5776 12.0588 15.4766 12.0344 15.501C12.1809 15.3687 12.1181 15.6438 12.2472 15.5602C12.303 15.5254 12.153 15.4592 12.16 15.4244C12.1844 15.2747 12.4181 15.4871 12.2821 15.5985C12.1251 15.7308 12.2018 15.5671 12.0763 15.5985C12.0798 15.5985 12.0414 15.9328 12.0623 15.9502C12.1181 15.9885 12.3309 15.7343 12.446 15.7413C12.4216 15.7413 12.5716 16.0408 12.5785 16.0373C12.3309 16.2357 12.7495 16.2531 12.746 16.2288C12.746 16.2183 12.6797 16.5456 12.7948 16.3924C12.8471 16.3228 13.0285 16.5595 12.9378 16.5735C12.732 16.5979 13.2762 16.9879 13.2622 16.9461C13.3145 17.0714 13.6005 17.061 13.6877 17.1445C13.7122 17.1689 14.1447 17.8061 13.8273 17.8375C13.8273 17.8375 13.7784 17.343 13.5552 17.3047C13.4157 17.2803 13.4052 16.9739 13.2622 17.0018C13.2238 17.0087 12.7843 16.9565 12.8193 16.9948C12.9518 17.1341 13.168 17.2142 13.2866 17.3987C13.3878 17.552 13.6738 17.8409 13.6494 18.0952C13.597 18.5757 13.4227 19.185 13.4331 19.7456C13.4401 20.1879 13.8552 20.4107 13.8447 20.8007C13.8447 20.8181 14.1412 21.2638 14.1412 21.2673C14.3191 21.2603 14.7063 21.4588 14.7516 21.6677C14.79 21.8558 15.0132 22.4721 15.1632 22.5835C15.2923 22.681 15.4318 22.7298 15.4457 22.9317C15.4562 23.1337 15.2853 22.9422 15.2679 23.0327C15.2329 23.1964 15.5678 23.2347 15.6341 23.2834C15.8399 23.4401 15.7562 23.7012 15.8817 23.8057C15.9166 23.837 16.3945 24.2654 16.3736 24.2793C16.5724 24.1365 16.3108 23.9311 16.1922 23.9102C16.098 23.8928 15.7666 22.8691 15.5852 22.7367C15.5887 22.7367 15.1074 21.9672 15.2818 21.9463C15.3446 21.9393 15.669 22.1239 15.669 22.1239C15.6271 22.2109 15.7631 22.8064 15.8399 22.7228C15.9236 22.6218 16.7294 23.7291 16.7956 23.7987C17.0328 24.0425 17.284 24.3106 17.3991 24.6484C17.4339 24.7528 17.3153 24.8678 17.3188 24.913C17.3502 25.1777 17.5141 25.1742 17.6816 25.31C18.006 25.5816 18.4839 25.7383 18.8849 25.9019C19.1954 26.0273 19.3593 26.1944 19.7081 26.0551C19.9732 25.9507 20.2279 26.17 20.4127 26.3337C20.5557 26.4625 21.3894 26.9361 21.5917 26.7725C21.7312 26.661 22.1428 27.6499 22.1672 27.6569C22.3486 27.73 22.6241 27.9842 22.802 28.0051C23.2694 28.0677 23.4125 28.5065 23.5555 27.9668C23.6811 27.5037 24.1415 28.4926 24.1798 28.5657C24.2566 28.7119 24.0787 28.9139 24.2252 29.0706C24.3961 29.2551 23.9182 29.4258 23.8833 29.5094C23.7717 29.7879 23.5589 29.8366 23.4404 30.1048C23.3741 30.2545 23.3776 30.3346 23.3392 30.4739C23.2799 30.6688 23.5101 30.5888 23.5729 30.6863C23.6182 30.7594 23.2834 30.9579 23.2485 31.0275C23.1369 31.2538 23.395 31.4941 23.5345 31.5951C23.852 31.818 23.9601 32.2846 24.131 32.577C24.2252 32.7407 24.4205 33.2491 24.5635 33.3361C24.7798 33.4684 25.9064 33.9107 25.9029 34.1405C25.9029 34.6071 25.8157 35.0319 25.8087 35.4532C25.8053 35.6482 25.6134 35.8641 25.6343 36.0417C25.6378 36.0835 25.582 36.4456 25.5576 36.4665C25.4948 36.5361 25.4495 36.94 25.4669 37.0271C25.4983 37.1977 25.2576 37.4763 25.1669 37.6121C25.1111 37.6957 24.996 37.7966 25.1076 37.915C25.2298 38.0474 24.9332 38.1762 25.0204 38.305C25.0588 38.3677 24.7344 38.5975 25.0065 38.5836C25.1426 38.5801 24.9995 38.3572 25.1809 38.3259C25.2785 38.3259 25.0972 38.9283 25.0588 38.9457C24.9821 39.0188 25.0449 38.7472 24.9123 38.7716C24.853 38.7856 24.9786 38.8413 24.9786 38.8552C24.9786 38.8447 24.5461 39.0432 24.6612 39.0502C24.6682 39.0502 24.9367 39.0049 24.9402 39.0711C24.9402 39.1094 24.8356 39.0955 24.8495 39.1512C24.86 39.193 25.0797 39.1198 25.0658 39.186C25.0728 39.1477 24.26 39.28 24.874 39.2313C24.9542 39.2243 24.6751 39.3566 24.6926 39.367C24.8251 39.4506 24.8984 39.3148 24.9402 39.3288C25.0902 39.3914 24.6647 39.4994 24.7623 39.5411C24.7868 39.5516 24.989 39.5133 25.0239 39.5376C25.0414 39.5516 24.8809 39.5864 24.9088 39.5899C24.9995 39.6004 25.1809 39.569 25.2088 39.6004C25.2437 39.6387 24.853 39.6038 24.9821 39.663C25.0309 39.6874 25.3518 39.5864 25.4111 39.6526C25.3972 39.6352 25.0623 39.7048 25.0414 39.7118C25.0414 39.7118 25.4495 39.6769 25.4599 39.6839C25.4913 39.7083 24.996 39.7605 24.9821 39.7431C24.9995 39.764 25.2716 39.8092 25.317 39.7953C25.3937 39.7745 25.2193 39.7849 25.282 39.7605C25.3414 39.7396 25.5576 39.7884 25.5088 39.7152C25.4879 39.6839 25.7111 39.6352 25.7355 39.6561C25.7599 39.6769 25.6065 39.6874 25.5925 39.7013C25.5506 39.7397 25.7669 39.7152 25.7913 39.7257C25.746 39.7118 25.6692 39.7953 25.6867 39.7919C25.6169 39.8023 25.6518 39.7501 25.6134 39.7466C25.5088 39.7327 25.5855 39.7953 25.5751 39.7953C25.5367 39.7953 25.4704 39.7535 25.4251 39.771C25.4564 39.7605 25.3344 39.8337 25.3344 39.8127C25.3344 39.7919 25.5646 39.8685 25.5576 39.865C25.589 39.872 25.589 39.8302 25.6274 39.8267C25.6343 39.8267 25.7529 39.8998 25.8122 39.8755C25.7983 39.8685 25.8018 39.8615 25.8192 39.8545C25.882 39.8441 25.9553 39.8894 26.0041 39.8894C26.0773 39.8963 25.9553 39.8476 26.0041 39.851C26.1227 39.8545 26.5517 39.8197 26.5726 39.8197C26.5064 39.8127 25.9238 39.7431 25.9762 39.7083C26.1052 39.6177 25.7634 39.6804 25.8053 39.6317C25.8331 39.5969 25.9622 39.6456 26.0075 39.6317C26.025 39.6282 25.8576 39.4889 26.0075 39.4193C26.168 39.3496 26.5029 39.2347 26.5866 39.1233C26.6493 39.0432 25.9518 38.991 26.4227 38.8378C26.6947 38.7472 26.7435 38.6776 26.9354 38.5279C26.9214 38.5105 26.9005 38.4965 26.8726 38.4861C26.8726 38.4965 27.3016 38.4826 27.1307 38.406C26.9703 38.3364 26.9633 38.4756 26.8517 38.3085C26.7122 38.0996 27.19 38.2737 27.354 38.211C27.5249 38.1518 27.3923 37.9463 27.483 37.8906C27.5249 37.8663 28.0167 37.8628 28.0865 37.8523C28.3934 37.8001 28.4597 37.7305 28.6515 37.5772C28.8364 37.4345 28.369 37.1281 28.3759 37.1211C28.5922 36.9818 29.0701 37.344 29.3945 37.055C29.4817 36.9888 30.1235 36.282 30.1479 36.2924C30.1863 36.3272 29.9805 36.5501 29.956 36.557C30.4792 36.4073 30.7165 35.7248 30.7862 35.3627C30.8211 35.1781 31.421 35.0771 31.4978 34.9692C31.6721 34.729 31.9966 34.8265 32.2198 34.7707C32.4605 34.715 32.7883 34.1022 32.8581 33.8793C32.9348 33.6391 33.0988 33.4893 33.1023 33.1968C33.1023 33.0924 33.1232 32.6467 33.1721 32.5805C33.2313 32.5039 33.2697 32.6362 33.3464 32.5875C33.5488 32.4552 33.5173 32.201 33.765 32.0791C34.1068 31.912 34.3789 30.8499 33.9394 30.9056C34.0336 30.8917 33.8452 30.9196 33.9394 30.9056L33.9464 30.8917ZM20.8662 25.6025C20.922 25.6025 21.0441 25.6059 21.1417 25.6094C21.0441 25.6094 20.922 25.6059 20.8662 25.6025ZM21.2498 25.6094C21.2708 25.6094 21.1975 25.6094 21.2498 25.6094Z" fill="white"/>
<path d="M24.9647 25.0071C25.0204 24.9374 23.852 24.4499 23.7822 24.4151C23.4787 24.2793 23.1543 24.1609 22.8195 24.2549C22.7916 24.2619 22.3207 24.4464 22.3975 24.5474C22.53 24.725 22.8334 24.1609 23.0323 24.3768C23.2241 24.5857 23.4648 24.4569 23.695 24.6136C23.9112 24.7598 24.6228 25.4353 24.9681 25.0036C25.0135 24.9478 24.9228 25.0593 24.9681 25.0036L24.9647 25.0071Z" fill="white"/>
<path d="M23.9321 25.4946C23.9775 25.5712 24.3995 25.6827 24.4449 25.5852C24.4902 25.4842 23.8763 25.4006 23.9321 25.4946Z" fill="white"/>
<path d="M26.7854 25.512C26.8831 25.6652 27.1691 25.5712 27.1935 25.512C27.2388 25.4005 26.6843 25.3587 26.7854 25.512Z" fill="white"/>
<path d="M27.762 39.5933C27.8249 39.6037 28.1144 39.5584 28.09 39.5341C28.0376 39.4853 27.6958 39.5828 27.762 39.5933Z" fill="white"/>
<path d="M27.5109 39.5901C27.6051 39.6075 27.8457 39.51 27.7551 39.5031C27.6644 39.4996 27.4202 39.5726 27.5109 39.5901Z" fill="white"/>
<path d="M20.779 29.9622C20.6778 30.1154 20.8941 30.2686 20.9359 30.2024C20.9883 30.1224 20.8801 29.8125 20.779 29.9622Z" fill="white"/>
<path d="M29.8968 10.8107C29.8898 10.7202 29.3282 10.466 29.2829 10.6053C29.1957 10.8699 29.9072 10.9779 29.8968 10.8107C29.9003 10.8874 29.8933 10.7341 29.8968 10.8107Z" fill="white"/>
<path d="M35.9066 11.2251C35.8543 11.2425 35.0904 11.0719 35.0904 11.0858C35.0939 11.0928 35.3102 10.8107 35.209 10.8038C35.2823 10.8038 36.1159 11.4305 35.9206 11.0057C35.8055 10.7585 35.4671 10.7028 35.3416 10.4939C35.2962 10.4138 35.6904 10.5914 35.7287 10.567C35.8578 10.4869 35.7183 10.3685 35.5718 10.3476C35.4706 10.3337 35.2404 10.4103 35.1428 10.3163C35.1637 10.3337 35.2404 10.1282 35.2404 10.1317C35.2404 10.1317 35.7671 10.2815 35.8334 10.2884C36.2206 10.3163 35.7532 10.1074 35.6729 10.0447C35.6346 10.0099 36.2171 10.1282 36.1404 9.99593C36.1299 9.97852 35.809 9.8845 35.7427 9.82879C35.5927 9.69995 36.0636 9.81138 36.0532 9.70692C36.0392 9.55023 35.3137 9.28907 35.3381 9.27166C35.4567 9.18809 35.9031 9.33434 36.0706 9.33085C36.2659 9.32389 35.5788 9.05926 35.5927 9.09407C35.5473 9.01051 35.802 9.11497 35.8264 9.08014C35.9031 8.96872 35.2265 8.97917 35.2892 9.01051C35.1741 8.95131 35.4323 8.70409 35.5125 8.68668C35.502 8.68668 35.7915 8.38373 35.8648 8.48471C35.7252 8.2932 35.5055 8.50909 35.3904 8.44293C35.2857 8.38722 36.0601 8.33847 36.0322 8.32802C35.9764 8.29668 35.5613 8.24793 35.5543 8.25838C35.6102 8.16785 36.7647 8.27231 36.681 8.06339C36.6531 7.99722 36.1961 7.93803 36.1299 7.93107C35.9938 7.91366 35.8055 7.89973 35.7183 7.94848C35.6311 7.99722 35.7532 8.06687 35.5543 8.03205C35.502 8.0216 35.1637 7.95893 35.1463 7.96589C34.9753 8.01464 34.8183 8.18874 34.6056 8.19222C34.5742 8.19222 34.7311 8.03901 34.7381 8.03205C34.8567 7.93803 34.7137 7.73607 34.5079 7.8475C34.4556 7.87535 33.9499 8.03901 33.8871 7.97981C33.8208 7.91714 34.2359 7.91366 34.201 7.86491C34.1277 7.76393 32.8511 7.87883 32.8371 7.85794C32.7534 7.73955 34.6928 7.83705 34.8114 7.71518C34.8044 7.71518 33.765 7.50974 33.5871 7.51322C33.0674 7.49929 32.5476 7.45751 32.0349 7.4784C31.7663 7.48885 31.707 7.48885 31.6687 7.55501C31.6337 7.6142 31.3442 7.48188 31.2222 7.53063C31.2047 7.53759 30.099 7.55501 30.113 7.55849C30.1513 7.56893 30.3501 7.58983 30.3501 7.61072C30.3501 7.63161 30.0781 7.61768 30.0363 7.62813C29.9734 7.64206 30.6571 7.76045 30.6292 7.79527C30.5839 7.82661 29.5304 7.57938 29.3595 7.63161C29.2828 7.6525 29.6211 7.70822 29.6351 7.73259C29.6665 7.79527 29.1119 7.6734 29.1014 7.66991C28.8049 7.60724 29.1642 7.79178 28.9096 7.8092C28.9689 7.80571 28.8364 7.65947 28.7282 7.64902C28.6236 7.63509 27.9783 7.66295 27.9155 7.69081C27.9399 7.70822 27.9748 7.72563 28.0202 7.73955C27.9922 7.78134 27.2842 7.62465 27.49 7.77786C27.6504 7.89973 27.0818 7.82661 26.8795 7.86142C26.8203 7.86839 26.1122 8.00767 26.3773 8.03205C26.4645 8.03901 26.8482 8.01115 26.8168 8.09473C26.7749 8.22008 26.5203 8.23052 26.2866 8.23052C26.0494 8.23052 25.8262 8.2932 25.582 8.31758C25.5157 8.32454 25.2681 8.33847 25.2716 8.39418C25.2751 8.50909 25.6099 8.45338 25.7285 8.51954C25.8541 8.59266 26.1331 8.57525 26.2796 8.54739C26.44 8.51605 26.6877 8.624 26.5587 8.63444C26.4889 8.63792 25.5401 8.62051 25.5611 8.67275C25.5959 8.75283 25.9901 8.68319 26.0076 8.75283C26.018 8.79114 25.8541 8.82248 26.0076 8.85729C26.1575 8.88863 26.3528 8.96175 26.5203 8.9548C26.6284 8.94783 26.3843 8.86426 26.6424 8.89212C26.7644 8.90604 26.9005 8.8747 27.0086 8.89212C27.1725 8.91997 27.4481 8.90604 27.6539 8.9339C27.8109 8.9548 27.9399 8.99309 28.0899 9.0314C28.3097 9.08363 28.2434 9.17765 28.4317 9.25077C28.7527 9.3796 28.7142 9.49451 28.9549 9.64424C29.0561 9.70692 28.9654 9.74522 29.1154 9.83575C29.2479 9.91236 28.948 9.94021 29.0352 10.0099C29.1259 10.083 28.9549 10.184 29.1642 10.2153C29.3421 10.2432 29.3177 10.1248 29.4712 10.1317C29.3875 10.1248 30.0885 10.5287 30.0885 10.5322C30.092 10.5461 29.3351 10.3511 29.3491 10.4486C29.37 10.5983 29.9525 10.6366 30.0641 10.6993C30.2176 10.7864 30.1618 10.9639 30.1513 11.0754C30.1513 11.1206 29.8165 11.0614 29.7607 11.0928C29.5165 11.2321 29.5724 11.4479 29.8025 11.5803C29.8374 11.6012 29.5758 11.6952 29.7153 11.824C29.8932 11.9877 30.0328 11.9772 30.0397 12.2036C30.0397 12.3602 30.9432 13.4745 31.1768 13.4397C31.3931 13.3979 32.0209 13.962 32.1361 13.7426C32.1605 13.6939 32.2616 13.3561 32.2756 13.3561C32.436 13.3248 32.1605 13.0288 32.1884 12.987C32.2581 12.8756 32.593 12.9104 32.5581 12.6597C32.5511 12.6144 32.5581 12.2349 32.4674 12.2697C32.5337 12.2871 32.6 12.308 32.6628 12.3254C32.8057 12.2662 32.4744 12.1618 32.8337 12.1652C32.9802 12.1652 32.9662 11.932 33.0604 11.9807C33.0883 12.0294 33.0952 12.0782 33.0813 12.1269C33.1615 12.2697 33.8801 11.9459 33.8975 11.8136C33.9114 11.737 34.1417 11.7056 34.1033 11.6255C34.0091 11.4375 34.3231 11.6395 34.3754 11.5768C34.4661 11.4723 35.0102 11.5524 35.1497 11.535C35.4392 11.4967 35.7601 11.2808 35.9066 11.2251C35.9694 11.2007 35.8438 11.2495 35.9066 11.2251Z" fill="white"/>
<path d="M31.7314 39.7326C31.7314 39.7605 31.9721 39.8371 32.0523 39.7988C32.1813 39.7396 31.7314 39.7292 31.7314 39.7326C31.7314 39.7605 31.7314 39.7152 31.7314 39.7326Z" fill="white"/>
<path d="M25.9738 10.1093C25.9215 10.172 26.1726 10.3739 26.2773 10.3739C26.3435 10.3739 26.933 10.3008 26.933 10.2869C26.933 10.1476 26.0366 10.0292 25.9738 10.1128C26.0331 10.0327 25.9145 10.1929 25.9738 10.1128V10.1093Z" fill="white"/>
<path d="M19.5931 8.85381C19.4012 8.81551 19.621 9.02443 19.6454 9.02095C19.5338 9.04185 19.3908 8.90604 19.2896 8.95131C19.1815 8.99658 19.3524 9.04881 19.321 9.09059C19.2442 9.17416 18.9513 8.7598 18.7943 8.93042C18.5257 9.22291 19.457 9.12541 19.6 9.14282C19.6907 9.14979 19.3349 9.37264 19.7779 9.31345C19.7954 9.31345 20.2523 9.23336 20.1616 9.15327C20.0709 9.0697 20.214 8.9722 20.0535 8.8956C19.9802 8.86078 19.7151 8.88167 19.5896 8.85729C19.7396 8.88515 19.4396 8.82944 19.5896 8.85729L19.5931 8.85381Z" fill="white"/>
<path d="M12.0868 16.1557C11.9402 16.2601 12.2088 16.6502 12.3065 16.5701C12.3309 16.5492 12.3065 15.992 12.0868 16.1557C12.2332 16.0477 11.9402 16.2636 12.0868 16.1557Z" fill="white"/>
<path d="M14.5249 10.6228C14.5876 10.6228 14.7062 10.9014 14.776 10.8178C14.8736 10.6959 15.0864 10.7238 15.212 10.6541C15.2922 10.6054 15.5469 10.3408 15.6061 10.2676C15.6863 10.1632 16.1503 10.0517 16.2863 9.99255C16.7676 9.77666 14.64 9.72792 14.6539 9.92987C14.6539 9.98907 14.8039 9.99951 14.7376 10.0761C14.7202 10.097 14.5214 10.2467 14.5528 10.2676C14.7132 10.3756 13.9702 10.588 14.5249 10.6228C14.6678 10.6298 14.3818 10.6158 14.5249 10.6228Z" fill="white"/>
<path d="M15.2294 9.41452C15.362 9.35881 15.4143 9.38666 15.5399 9.30309C15.341 9.43193 15.927 9.32747 15.8329 9.2822C15.9061 9.31354 16.2305 8.95837 16.1538 9.13944C16.0456 9.40059 16.7502 8.89918 16.6874 8.89918C16.5165 8.87828 16.1433 8.90962 15.9236 9.01408C15.6968 9.12551 15.5573 9.17774 15.3271 9.25783C15.1492 9.31702 15.198 9.42845 15.2259 9.418C15.2992 9.38666 15.1527 9.44934 15.2259 9.418L15.2294 9.41452Z" fill="white"/>
<path d="M16.513 9.19166C16.4851 9.20211 16.4573 9.21256 16.4293 9.223C16.3561 9.28916 16.6107 9.28916 16.6107 9.28568C16.534 9.30657 16.2794 9.29612 16.2514 9.39362C16.241 9.42844 16.5026 9.36229 16.541 9.36577C16.52 9.36577 16.1328 9.48068 16.1433 9.49112C16.3037 9.67915 16.677 9.37621 16.8305 9.37621C16.8165 9.40755 16.8165 9.43541 16.8305 9.46326C16.8967 9.46326 17.2665 9.36229 17.2735 9.41103C17.2804 9.48416 16.7642 9.54335 16.7084 9.58165C16.5723 9.67219 16.9351 9.66174 16.963 9.65826C17.1444 9.6304 17.4129 9.55728 17.5699 9.45978C17.7618 9.33791 18.2222 9.49112 18.4245 9.32398C18.8047 9.01408 18.1734 9.19863 18.1071 9.14639C18.0478 9.10113 17.8176 8.77381 17.6327 9.08024C17.6606 9.10113 17.699 9.11506 17.7513 9.11854C17.7059 9.06631 17.6711 9.36229 17.7827 9.27175C17.5978 9.42496 17.2769 9.19166 17.1863 9.16729C17.0607 9.13595 16.8863 9.18122 16.8165 9.11158C16.7363 9.028 16.6107 9.17425 16.513 9.18818C16.6351 9.17425 16.391 9.20211 16.513 9.18818V9.19166Z" fill="white"/>
<path d="M27.4098 16.6398C27.4342 16.7199 28.062 16.9776 28.0794 16.8661C28.0969 16.7547 27.3923 16.5702 27.4098 16.6398Z" fill="white"/>
<path d="M15.8294 9.44231C15.9794 9.44231 16.1608 9.33089 16.1712 9.27866C16.1782 9.22643 15.7562 9.44231 15.8294 9.44231Z" fill="white"/>
<path d="M25.5028 10.3802C25.8299 10.3587 25.4787 10.1525 25.3902 10.2918C25.3607 10.3346 25.1543 10.1605 25.0819 10.1551C24.9559 10.1444 24.9693 10.0426 24.8058 10.0239C24.7495 10.0159 24.6959 10.0132 24.6396 10.0132C24.4546 10.0132 24.5323 10.1176 24.4359 10.1337C24.3581 10.1471 24.3795 10.0587 24.3125 10.0694C24.2321 10.0801 24.1597 10.1444 24.0793 10.1444C24.1758 10.1391 23.9935 9.84977 23.9855 9.83369C23.9184 9.7185 23.6691 9.85244 23.5726 9.86852C23.3957 9.89798 23.141 9.97567 23.3501 10.0935C23.3876 10.115 23.1946 10.1632 23.2536 10.2007C23.3045 10.2328 23.4198 10.2194 23.4225 10.2837C23.4225 10.3239 23.1222 10.2516 23.1437 10.1364C23.1276 10.0935 23.1196 10.0507 23.1196 10.0051C23.1598 9.95156 23.3957 9.86316 23.3984 9.81762C23.4091 9.69172 22.688 9.96227 22.6263 10.0319C22.5432 10.123 22.5244 10.2275 22.5512 10.3293C22.5727 10.4096 22.9212 10.3052 22.9641 10.3909C22.9882 10.4418 22.6022 10.3775 22.6048 10.4418C22.6129 10.5971 23.4252 10.5918 23.5646 10.6105C23.6638 10.6213 24.3795 10.5677 24.3876 10.5837C24.342 10.565 24.3125 10.5355 24.3018 10.498C24.3179 10.4605 24.8996 10.707 24.9103 10.7579C24.9157 10.7927 24.6878 10.8329 24.7442 10.865C24.8487 10.924 24.9881 10.7311 25.0766 10.8436C25.1757 10.9722 25.2991 10.9213 25.4304 11.0606C25.4921 11.1249 25.3902 11.3017 25.4894 11.3097C25.653 11.3204 25.7602 11.2159 25.9076 11.3177C26.039 11.4088 25.9907 11.441 25.8379 11.4758C25.7039 11.5053 25.7307 11.4115 25.6127 11.366C25.0578 11.1436 25.3768 11.6419 25.0471 11.6633C24.9211 11.6687 24.7146 11.6794 24.6074 11.6821C24.4492 11.6821 24.4278 11.8856 24.6074 11.891C24.8835 11.8964 25.0953 11.7865 25.3312 11.8321C25.6154 11.8856 25.543 12.1857 25.8486 12.2205C25.9827 12.2339 26.5269 12.5741 26.6261 12.4696C26.7011 12.3866 26.1649 12.0169 26.1194 12.049C26.2293 11.9767 26.4518 12.1401 26.5403 12.175C26.6824 12.2285 27.0845 12.1455 26.8432 12.033C26.7226 11.9767 26.803 11.7812 26.6046 11.7785C26.5429 11.7785 26.1998 11.599 26.3097 11.5615C26.3741 11.5374 26.2829 11.3445 26.4277 11.3981C26.618 11.4677 26.7065 11.5776 26.8647 11.6847C27.0309 11.7946 27.4491 11.3713 27.4437 11.3713C27.3445 11.2802 27.0845 11.3526 27.0737 11.2052C27.0684 11.1409 26.8272 11.0606 26.7628 11.0766C26.6904 11.0927 26.4223 10.9909 26.3473 10.9668C25.9827 10.8356 26.4384 10.8382 26.4518 10.8114C26.4867 10.7498 26.2615 10.782 26.2534 10.7364C26.24 10.6748 26.433 10.7123 26.3366 10.6293C26.2105 10.5168 26.2481 10.6213 26.1355 10.6186C26.0738 10.6186 26.2079 10.5168 26.1274 10.4846C26.0443 10.4525 25.862 10.49 25.8031 10.4525C25.7253 10.4043 25.4867 10.3936 25.5001 10.3936C25.5752 10.3882 25.4251 10.3989 25.5001 10.3936L25.5028 10.3802Z" fill="white"/>
<path d="M25.7155 10.0281C25.9841 9.99331 25.6562 9.73564 25.4574 9.74957C25.3074 9.76001 25.1748 9.90278 25.2551 10.0142C25.3562 10.1465 25.5795 10.0455 25.712 10.0281C25.8306 10.0142 25.5934 10.0421 25.712 10.0281H25.7155Z" fill="white"/>
<path d="M23.531 12.3814C23.5868 12.162 22.4986 11.9948 22.5125 11.8138C22.5229 11.6397 22.1986 12.0436 22.1776 12.0993C22.1707 12.1132 21.9893 12.4789 21.9753 12.4475C21.9683 12.4336 22.502 12.5555 22.5195 12.5485C22.6241 12.5067 22.7741 12.3431 22.8857 12.3326C22.9764 12.3221 23.4787 12.5798 23.5345 12.3814C23.5554 12.2978 23.5136 12.4649 23.5345 12.3814H23.531Z" fill="white"/>
<path d="M29.4817 16.2705C29.5654 16.2287 29.3142 16.2079 29.1957 16.3541C29.1329 16.4307 29.0004 16.577 29.0038 16.6883C29.0143 16.946 28.9166 16.8137 28.7736 16.9426C28.4632 17.2246 28.8713 17.2873 29.0806 17.3151C29.0631 17.3151 29.7224 17.2594 29.67 17.3535C29.6282 17.3918 29.6003 17.4405 29.5863 17.4962C29.5619 17.2908 30.6223 17.82 30.0747 17.3395C30.0154 17.2873 30.1409 17.148 30.1095 17.1341C29.8096 17.0052 30.1374 16.8973 29.7642 16.9043C29.8061 16.9043 29.1817 16.563 29.2829 16.7023C29.2201 16.6153 29.4119 16.3123 29.4817 16.2775C29.5759 16.2287 29.3875 16.3262 29.4817 16.2775V16.2705Z" fill="white"/>
<path d="M23.681 13.0356C23.7543 13.0251 23.9008 12.8092 23.7159 12.8197C23.531 12.8301 23.5694 13.0495 23.681 13.0356Z" fill="white"/>
<path d="M18.8536 9.32383C18.9268 9.27508 18.7559 9.18803 18.6826 9.2716C18.6094 9.35517 18.7803 9.37606 18.8536 9.32383Z" fill="white"/>
<path d="M19.5372 10.2851C19.6175 10.3234 19.9523 10.2085 20.043 10.1597C20.1407 10.1005 20.3604 9.68619 20.1581 9.75931C20.0918 9.78368 20.1895 9.89163 20.1162 9.90207C20.1721 9.89511 19.8337 9.79761 19.8477 9.80806C19.7919 9.74538 20.3569 9.6444 20.0814 9.57824C19.9837 9.55387 19.9244 9.42503 19.7291 9.55735C19.7395 9.58172 19.7605 9.59913 19.7954 9.61306C19.7884 9.62351 19.4117 9.60958 19.3454 9.63047C18.9722 9.75583 19.5058 9.73842 19.5128 9.76976C19.5581 10.0274 19.0245 9.80806 18.9512 9.89163C18.878 9.96823 19.4396 10.2364 19.5372 10.2816C19.7256 10.3722 19.3489 10.1911 19.5372 10.2816V10.2851Z" fill="white"/>
<path d="M22.7811 12.858C22.9416 12.9416 23.1962 12.7048 23.1787 12.6386C23.1613 12.569 22.5893 12.757 22.7811 12.858Z" fill="white"/>
<path d="M20.8034 9.1393C20.6673 9.07663 20.2069 9.25769 20.2627 9.28555C20.4824 9.39349 21.2986 9.36564 20.8034 9.1393C20.9708 9.21591 20.6359 9.0627 20.8034 9.1393Z" fill="white"/>
<path d="M21.208 9.22277C21.2394 9.29938 21.6615 9.3725 21.7731 9.3133C21.9196 9.23322 22.1603 9.33071 22.373 9.3342C22.6486 9.3342 22.7986 9.28196 23.0288 9.24714C23.2346 9.21581 23.552 9.38643 23.7508 9.22974C24.2287 8.85367 21.8114 9.16706 21.651 9.01036C21.6231 8.98251 21.8045 8.92679 21.8289 8.90938C21.9231 8.84671 21.1766 8.83974 21.1487 8.83626C20.9429 8.81537 20.6185 8.67609 20.3779 8.79796C20.2488 8.86064 20.8453 8.94072 20.9185 8.93376C21.3127 8.90938 21.1453 9.06956 21.2115 9.22277C21.2569 9.3342 21.1662 9.11135 21.2115 9.22277H21.208Z" fill="white"/>
<path d="M18.1246 10.5389C18.1409 10.5254 18.584 10.5443 18.2632 10.4283C18.1736 10.3959 17.7793 10.3312 17.8093 10.2341C17.8365 10.1289 17.6516 9.98054 17.8093 9.87535C18.1899 9.6245 17.532 9.77555 17.5456 9.78634C17.5755 9.8187 17.7277 9.84028 17.7168 9.89153C17.7168 9.88344 17.1949 9.70003 17.358 10.0749C17.4178 10.2125 17.2465 10.2287 17.2248 10.0857C17.2166 10.0453 16.9801 9.85377 16.9257 9.95357C16.8986 10.0021 17.0562 9.97784 17.0209 10.0399C17.0127 10.0561 16.7653 10.0615 16.7762 10.0884C16.7599 10.0426 16.6512 9.84028 16.4854 10.0075C16.4799 10.0129 16.2869 10.2152 16.2869 10.0884C16.2869 10.1019 16.5941 9.8268 16.2624 9.93469C16.1754 9.96166 15.7106 10.1882 15.6807 10.1855C15.4877 10.1667 15.7024 10.4148 15.697 10.377C15.7214 10.4957 15.9715 10.2907 16.0776 10.3447C16.0885 10.3501 15.523 10.4876 15.6807 10.5497C15.7649 10.582 16.6186 10.4418 16.6023 10.5497C16.5941 10.5658 15.6154 10.6656 15.7378 10.7762C15.8628 10.8922 16.0748 10.7951 16.238 10.8248C16.295 10.8329 16.238 10.9327 16.3168 10.9543C16.431 10.9839 16.6104 10.965 16.7436 10.93C17.029 10.8545 17.4477 10.6009 17.6489 10.7655C17.744 10.8437 18.0349 10.7924 18.1654 10.7358C18.3883 10.6387 17.9397 10.6117 17.9506 10.6333C18.0023 10.5955 18.0621 10.5632 18.1246 10.5389C18.1736 10.4984 18.0757 10.5793 18.1246 10.5389Z" fill="white"/>
<path d="M8.53232 24.5929C8.50095 24.5999 8.52185 24.7182 8.5428 24.6904C8.57767 24.6416 8.5637 24.5859 8.53232 24.5929Z" fill="white"/>
<path d="M8.6057 24.7667C8.5429 24.7771 8.59523 25.0383 8.61269 25.0105C8.64407 24.9652 8.75222 24.7423 8.6057 24.7667C8.65804 24.7562 8.55337 24.7771 8.6057 24.7667Z" fill="white"/>
<path d="M9.28929 15.5395C9.27882 15.5813 8.89164 15.9399 8.98233 16.0688C8.9998 16.0932 9.10441 16.0201 9.12536 15.9957C9.26834 15.8251 9.21256 15.8599 9.21256 15.7136C9.21256 15.7206 9.28231 15.5883 9.28929 15.536C9.29628 15.4873 9.28231 15.5848 9.28929 15.536V15.5395Z" fill="white"/>
<path d="M37.4868 13.2027C38.017 13.2723 37.3752 12.3879 37.1415 12.4854C37.1206 12.4923 37.0787 12.6978 36.9706 12.569C36.8973 12.4819 36.6392 12.6003 36.6602 12.6073C36.6253 12.5585 36.5834 12.5202 36.5346 12.4888C36.5416 12.4888 36.4927 12.8197 36.3602 12.6699C36.2904 12.5898 36.3602 12.5481 36.3114 12.4923C36.273 12.4506 35.9416 12.2765 35.98 12.3391C36.0358 12.367 36.0637 12.4018 36.0602 12.4436C35.9556 12.4192 35.7986 12.3565 35.8056 12.5341C35.8091 12.6316 36.1544 12.5794 36.2172 12.6386C36.3567 12.7674 35.9102 12.7779 35.9102 12.7814C35.9939 12.9032 36.5765 12.8719 36.1823 13.0565C36.2381 13.0286 36.6462 13.2445 36.7718 13.3141C37.0264 13.4534 37.2601 13.1713 37.4868 13.2027C37.5845 13.2166 37.3892 13.1888 37.4868 13.2027Z" fill="white"/>
<path d="M38.8889 17.0402C39.1715 17.0924 39.447 16.894 39.2691 16.4692C39.2099 16.3264 39.4924 16.4413 39.2622 16.1244C39.2412 16.0931 38.9169 16.0896 38.9169 16.1244C38.9378 16.1662 38.9657 16.2045 38.9971 16.2324C39.0145 16.3508 38.7494 16.2463 38.718 16.2602C38.6588 16.2881 38.861 16.6363 38.861 16.6328C38.8297 16.7408 38.589 16.981 38.8889 17.0367V17.0402Z" fill="white"/>
<path d="M39.1471 15.2122C39.1157 15.1669 39.025 15.3515 39.0668 15.362C39.1262 15.3724 39.1785 15.2575 39.1471 15.2122Z" fill="white"/>
<path d="M39.1366 15.4628C39.0773 15.5185 39.2831 15.609 39.2726 15.6299C39.1959 15.7831 39.2831 15.717 39.3076 15.8563C39.2726 15.8911 39.2378 15.9224 39.1994 15.9503C39.2413 15.9746 39.2726 15.9677 39.2971 15.9259C39.3041 15.9224 39.3145 16.0582 39.3703 16.0582C39.4122 16.0582 39.4227 15.9154 39.4366 15.9224C39.4994 15.9503 39.4261 16.2323 39.4296 16.2462C39.454 16.3751 39.6633 16.2358 39.6738 16.2637C39.6947 16.302 39.7994 16.7407 39.7121 16.7372C39.7052 16.7372 39.5447 16.6502 39.5691 16.7163C39.5482 16.6676 39.6354 16.981 39.6284 16.9252C39.6424 17.0297 39.461 16.9949 39.482 17.068C39.5099 17.1516 39.8377 17.2178 39.8412 17.2351C39.8517 17.2595 39.3982 17.3466 39.5133 17.559C39.5412 17.6042 39.8028 17.4441 39.8622 17.4754C39.9947 17.5346 40.3365 17.3814 40.3609 17.4058C40.333 17.4127 40.3051 17.3953 40.2877 17.3501C40.2877 17.2351 40.5179 17.0924 40.3051 16.9775C40.2772 16.9705 40.2563 16.9775 40.2423 17.0018C40.1865 16.974 40.211 16.8487 40.197 16.8417C40.1168 16.7999 40.1447 16.5283 40.0331 16.4621C39.8831 16.3716 39.9354 16.0582 39.7052 16.0199C39.7366 16.0234 39.8203 15.6682 39.8133 15.5951C39.8063 15.4941 39.5447 15.5429 39.5029 15.4837C39.468 15.4315 39.6738 15.2922 39.6005 15.1947C39.5936 15.1807 39.3041 15.2295 39.3215 15.3583C39.3598 15.609 39.182 15.4245 39.1471 15.4558C39.1854 15.421 39.1087 15.4907 39.1471 15.4558L39.1366 15.4628Z" fill="white"/>
<path d="M39.534 16.9514C39.534 16.9514 39.5549 17.1464 39.6038 17.0071C39.6107 16.9862 39.6456 16.7564 39.6317 16.732C39.5305 16.5544 39.5235 16.9479 39.5305 16.9549C39.5549 16.9758 39.5061 16.934 39.5305 16.9549L39.534 16.9514Z" fill="white"/>
<path d="M40.0223 9.39876C40.0223 9.39876 40.0049 9.39876 39.9944 9.39876C39.9804 9.39179 40.0084 9.35001 40.0223 9.30822V9.24554C40.0223 9.24554 40.0119 9.23162 40.0049 9.22466C39.9769 9.20028 39.8165 9.10975 39.7851 9.09582C39.6456 9.02966 39.8374 9.53456 39.8305 9.545C39.8305 9.55545 39.6595 9.34653 39.6526 9.29081C39.6107 8.96002 39.4712 9.3709 39.4712 9.3709C39.4607 9.3709 39.3561 9.23161 39.3177 9.22117C39.3456 9.22814 39.4816 9.18635 39.4573 9.15849C39.3944 9.08885 39.1887 9.14456 39.1084 9.11671C39.0805 9.10627 38.9549 9.15849 38.9549 9.20028C38.9584 9.45447 39.077 9.30822 39.1642 9.33956C39.084 9.31171 39.1049 9.71214 39.3701 9.77134C39.4084 9.78178 39.6595 9.57286 39.6665 9.61116C39.6456 9.6425 39.6386 9.6808 39.6456 9.72259C39.6839 9.74696 39.813 9.65991 39.8305 9.68429C39.9177 9.84446 39.3631 9.86535 39.4223 9.93151C39.4573 9.96981 39.8583 10.0395 39.8723 10.0325C39.834 10.0499 39.4642 10.0081 39.4607 10.0708C39.4573 10.2031 39.7049 10.2623 39.7537 10.2971C39.7398 10.3319 39.7188 10.3459 39.6874 10.3494C39.6874 10.3494 39.9107 10.6035 39.8967 10.4503C39.8897 10.3424 39.9595 10.2797 40.0188 10.224V9.40572L40.0223 9.39876Z" fill="white"/>
<path d="M39.0526 9.61491C39.091 9.65321 39.1294 9.68803 39.1677 9.71937C39.1154 9.71588 39.0387 9.43384 38.941 9.44777C38.8712 9.45821 39.0317 9.60446 39.0526 9.61491C39.0945 9.63231 39.0107 9.59749 39.0526 9.61491Z" fill="white"/>
<path d="M38.9584 15.2764C38.9689 15.3251 38.8817 15.4087 38.8817 15.4087C38.8677 15.3774 38.8538 15.346 38.8363 15.3217C38.805 15.3217 38.8154 15.4575 38.8189 15.4993C38.8259 15.5793 38.9096 15.4296 38.9445 15.541C38.9619 15.5967 38.8852 15.6281 38.8782 15.6455C38.8398 15.7395 39.1538 15.9624 39.1921 15.931C39.2375 15.8962 39.2898 15.8439 39.3177 15.7743C39.3142 15.7848 39.4154 15.649 39.4049 15.6524C39.4154 15.6524 39.6735 16.6553 39.67 16.7319C39.6979 17.1532 39.8479 16.5996 39.9316 16.7876C39.9455 16.819 39.9805 16.5926 39.9735 16.5926C39.963 16.6239 39.949 16.6414 39.9316 16.6379C39.9072 16.3976 39.963 16.2235 40.0258 16.1016V15.6873C40.0258 15.6873 40.0083 15.6664 40.0014 15.6629C39.9316 15.6106 40.0014 15.3251 40.0014 15.2625C40.0014 15.2067 40.0118 15.158 40.0258 15.1197V12.9957C39.9735 12.9817 39.9107 12.9817 39.9211 13.0897C39.9211 13.1175 40.0292 13.1001 40.0118 13.2359C40.0118 13.229 39.8304 13.1593 39.8339 13.1663C39.8409 13.1175 39.8479 13.0722 39.8583 13.027C39.8514 13.013 39.5933 13.3125 39.5444 13.316C39.5967 13.3195 39.8548 13.1941 39.9037 13.2881C39.9037 13.2881 39.8933 13.4239 39.8898 13.4239C39.8479 13.4309 39.8026 13.2638 39.7467 13.4239C39.7188 13.4971 39.5793 13.7304 39.5898 13.8C39.5828 13.7687 39.5096 14.002 39.5061 14.0054C39.4746 14.0403 39.5479 14.1796 39.4816 14.1238C39.4607 14.1064 39.3909 14.1203 39.3735 14.1238C39.3596 14.1238 39.4781 14.2979 39.4398 14.3049C39.3247 14.3258 39.3037 14.4163 39.2095 14.4999C39.2026 14.5069 39.1119 14.3119 39.1119 14.4128C39.1119 14.6287 39.0456 14.4024 38.9724 14.5556C38.9864 14.5904 39.0038 14.6148 39.0212 14.6357C38.9654 14.6043 38.798 14.66 38.8363 14.7262C38.7456 14.573 38.8015 14.9143 38.8015 14.9003C38.8015 14.9526 38.8154 15.1232 38.791 15.1615C38.7317 15.2694 38.9619 15.3112 38.9654 15.2694L38.9584 15.2764Z" fill="white"/>
<path d="M40.0223 22.6305C39.9979 22.5783 39.9734 22.526 39.9525 22.5225C39.8827 22.5121 39.8653 22.1395 39.7433 22.1743C39.7188 22.1813 39.5479 21.9445 39.5409 21.8818C39.534 21.7808 39.6246 21.7704 39.6246 21.6346C39.6246 21.6833 39.5932 21.2376 39.6142 21.2586C39.5549 21.0635 39.098 21.1576 38.9236 21.168C38.8468 21.1715 38.7003 21.1332 38.6271 21.2168C38.5573 21.2968 38.3829 21.5092 38.2957 21.5023C37.9922 21.4849 37.8388 21.0635 37.6888 21.5893C37.605 21.8923 37.2563 21.8575 37.2283 22.3032C37.2144 22.533 37.3086 22.5783 37.1761 22.7837C37.0574 22.9647 36.876 23.0135 36.754 23.1737C36.5517 23.4348 36.1366 24.2949 36.1052 24.6884C36.0913 24.859 36.2029 24.9704 36.1994 25.1584C36.2238 25.2559 36.2412 25.3535 36.2552 25.4544C36.2377 25.6285 36.1505 25.7504 36.1331 25.9314C36.1087 26.1683 36.0598 26.6314 36.2029 26.8055C36.3389 26.9691 36.5691 27.2198 36.6459 27.4601C36.7749 27.8605 37.1307 28.2017 37.4202 28.3167C37.5388 28.362 37.7655 28.1669 37.8736 28.1217C38.0864 28.0311 38.1911 28.1913 38.3829 28.0172C38.4387 27.9719 38.8294 27.5576 38.8538 27.6377C38.9026 27.7526 39.1154 27.5924 39.098 27.8571C39.084 28.1112 39.2514 27.9441 39.3107 27.9197C39.6037 27.7943 39.4258 28.456 39.4677 28.7241C39.4747 28.7728 39.3456 28.9121 39.3875 29.0305C39.4328 29.1454 39.4747 29.2673 39.513 29.3856C39.6177 29.7025 39.7049 29.9498 39.6909 30.4024C39.6804 30.6914 39.7781 30.7402 39.663 31.064C39.6177 31.1894 39.5305 31.6072 39.527 31.7361C39.52 32.2201 39.6561 32.4464 39.7153 32.8782C39.7433 33.0697 39.7328 33.3761 39.7433 33.592C39.7572 33.8706 39.8862 33.9785 39.9316 34.2327C39.9351 34.2536 39.9909 34.4068 40.0258 34.5356V22.6305H40.0223Z" fill="white"/>
<path d="M37.2423 20.4368C37.2807 20.5029 37.3958 20.9382 37.3854 20.9347C37.6086 20.9904 37.6016 20.872 37.7621 21.1401C37.7969 21.1854 38.2992 21.0845 38.3062 21.0148C38.3132 20.98 38.4597 20.7293 38.4806 20.7014C38.5713 20.5865 38.4597 20.3776 38.5748 20.2279C38.6411 20.1443 38.7003 20.1164 38.7666 20.0398C38.8782 19.9075 38.7945 19.7613 38.8643 19.6429C38.9619 19.4722 39.0805 19.7787 39.1712 19.7473C39.2549 19.7195 39.3142 19.528 39.391 19.5036C39.52 19.4653 39.6666 20.2244 39.7677 20.3358C39.7921 20.3602 39.9107 20.6004 39.9142 20.6909C39.9142 20.7362 39.9317 21.1123 39.9282 21.1123C39.9421 21.1158 39.9909 20.8372 39.9804 20.8059C39.9142 20.6039 39.9909 20.6736 40.0258 20.7154V20.6387C39.9944 20.5203 39.9317 20.3323 39.9317 20.3288C39.9177 20.2348 39.8898 20.2627 39.8619 20.2C39.8095 20.0816 39.813 19.9075 39.7677 19.7821C39.5933 19.3469 39.7747 19.2111 39.8619 19.6498C39.8793 19.7299 39.97 19.9423 40.0293 20.1199V17.2472C40.0293 17.2472 39.9944 17.2263 39.9595 17.2437C39.9386 17.2542 39.806 17.3725 39.7851 17.3412C39.7223 17.2402 39.7538 17.1915 39.7328 17.1254C39.7293 17.1079 39.6177 17.1393 39.6107 17.1427C39.4956 17.282 39.5619 17.1079 39.52 17.0661C39.4852 17.0313 39.3596 16.9861 39.3631 16.8085C39.3631 16.7423 39.4747 16.9826 39.4817 16.8746C39.4921 16.7249 39.4258 16.7841 39.398 16.7145C39.3666 16.6205 39.4573 16.603 39.4747 16.5787C39.4573 16.5682 39.398 16.126 39.4224 16.1782C39.3701 16.0633 39.3108 16.3349 39.3073 16.3384C39.2794 16.3767 39.1747 16.1782 39.1992 16.4707C39.2131 16.6135 39.2724 16.8886 39.3073 17.0279C39.3666 17.2681 39.1642 17.1706 39.077 17.1532C38.8922 17.1149 38.9201 17.4561 38.7597 17.5815C38.6968 17.6337 38.5608 17.5815 38.5818 17.773C38.5992 17.8949 38.355 18.0167 38.2783 17.9436C38.1283 17.7904 38.1841 17.8635 38.2085 18.0655C38.2329 18.2848 37.9993 18.0167 37.9469 18.0342C37.5004 18.17 38.1562 18.3058 38.1702 18.5356C38.1911 18.7515 38.362 18.7375 38.3236 19.0091C38.2923 19.225 38.3795 19.5523 38.1736 19.4514C38.0655 19.3922 37.2807 19.131 37.2353 19.3747C37.2388 19.3469 37.34 19.8588 37.3295 19.8344C37.4098 20.0119 37.19 20.3219 37.2493 20.4333L37.2423 20.4368Z" fill="white"/>
<path d="M22.2088 23.804C22.0588 23.5463 22.2298 24.295 22.303 24.1452C22.31 24.1348 22.2193 23.8214 22.2088 23.804C22.2611 23.891 22.1565 23.7169 22.2088 23.804Z" fill="white"/>
<path d="M26.2724 27.6828C26.3456 27.749 26.5898 27.6341 26.4468 27.5157C26.3387 27.4251 26.1887 27.6097 26.2724 27.6828C26.3003 27.7107 26.241 27.6515 26.2724 27.6828Z" fill="white"/>
<path d="M39.3561 20.3152C39.3352 20.3988 39.4014 20.9664 39.4921 20.6982C39.5619 20.4893 39.4189 20.0854 39.3561 20.3152C39.3666 20.2734 39.3422 20.3675 39.3561 20.3152Z" fill="white"/>
<path d="M39.8548 21.0602C39.8165 21.0742 39.6211 21.0498 39.792 21.2204C39.9141 21.3493 39.8443 21.3841 39.9037 21.0881C39.8897 21.0463 39.8757 21.0393 39.8548 21.0602C39.8932 21.0463 39.8165 21.0742 39.8548 21.0602Z" fill="white"/>
</g>
<g filter="url(#filter0_d_3033_19182)">
<path d="M6.50028 14.54C2.14907 17.4754 5.9367 22.3864 8.36801 24.1307C3.69424 18.7847 10.1022 16.7179 13.938 16.3643C31.3585 14.7237 43.9046 20.0179 48 22.8701C35.2179 9.57566 11.1386 11.4109 6.50028 14.54Z" fill="#020982"/>
</g>
<g filter="url(#filter1_d_3033_19182)">
<path d="M42.3673 33.317C46.8651 30.5126 42.4731 26.165 40.0266 24.3916C44.7197 29.8132 38.2386 31.8686 34.3635 32.2066C16.7642 33.7771 4.12145 28.369 0 25.4686C12.8414 38.9565 37.3102 36.47 42.3673 33.317Z" fill="#020982"/>
</g>
<path d="M40.0068 24.3872C41.8921 26.1727 43.0288 28.9673 39.8562 30.9195C34.9925 33.9122 14.4404 33.8477 1.65928 26.5079C1.18015 26.2376 0.757304 25.9795 0.392467 25.7396C0.80528 26.0041 1.22785 26.2602 1.65928 26.5079C6.79493 29.406 18.3966 33.7195 34.3305 32.2189C38.4378 31.7681 44.6806 29.7333 40.0068 24.3872Z" fill="#DADEFF"/>
<path d="M8.36796 24.1306C6.48262 22.3451 5.34594 19.5505 8.51852 17.5984C12.9962 14.8431 30.7851 14.7519 43.5544 20.4865C45.5032 21.3355 47.0024 22.1752 47.9999 22.87C46.6166 21.9836 45.1234 21.1911 43.5544 20.4865C37.503 17.85 27.1149 15.1232 13.938 16.3642C10.1021 16.7178 3.69417 18.7846 8.36796 24.1306Z" fill="#DADEFF"/>
</g>
<defs>
<filter id="filter0_d_3033_19182" x="2.51025" y="12.29" width="47.4897" height="15.8408" filterUnits="userSpaceOnUse" color-interpolation-filters="sRGB">
<feFlood flood-opacity="0" result="BackgroundImageFix"/>
<feColorMatrix in="SourceAlpha" type="matrix" values="0 0 0 0 0 0 0 0 0 0 0 0 0 0 0 0 0 0 127 0" result="hardAlpha"/>
<feOffset dy="2"/>
<feGaussianBlur stdDeviation="1"/>
<feComposite in2="hardAlpha" operator="out"/>
<feColorMatrix type="matrix" values="0 0 0 0 0.334088 0 0 0 0 0.348431 0 0 0 0 0.350962 0 0 0 0.25 0"/>
<feBlend mode="normal" in2="BackgroundImageFix" result="effect1_dropShadow_3033_19182"/>
<feBlend mode="normal" in="SourceGraphic" in2="effect1_dropShadow_3033_19182" result="shape"/>
</filter>
<filter id="filter1_d_3033_19182" x="-2" y="24.3916" width="48.3102" height="15.4126" filterUnits="userSpaceOnUse" color-interpolation-filters="sRGB">
<feFlood flood-opacity="0" result="BackgroundImageFix"/>
<feColorMatrix in="SourceAlpha" type="matrix" values="0 0 0 0 0 0 0 0 0 0 0 0 0 0 0 0 0 0 127 0" result="hardAlpha"/>
<feOffset dy="2"/>
<feGaussianBlur stdDeviation="1"/>
<feComposite in2="hardAlpha" operator="out"/>
<feColorMatrix type="matrix" values="0 0 0 0 0.334088 0 0 0 0 0.348431 0 0 0 0 0.350962 0 0 0 0.25 0"/>
<feBlend mode="normal" in2="BackgroundImageFix" result="effect1_dropShadow_3033_19182"/>
<feBlend mode="normal" in="SourceGraphic" in2="effect1_dropShadow_3033_19182" result="shape"/>
</filter>
<radialGradient id="paint0_radial_3033_19182" cx="0" cy="0" r="1" gradientTransform="matrix(2.73486 14.2137 -14.2499 2.7341 21.3714 26.1194)" gradientUnits="userSpaceOnUse">
<stop stop-color="#6D9BFF"/>
<stop offset="1" stop-color="#00126E"/>
</radialGradient>
<clipPath id="clip0_3033_19182">
<rect width="48" height="48" fill="white"/>
</clipPath>
</defs>
</svg>
