<svg width="286" height="43" viewBox="0 0 286 43" fill="none" xmlns="http://www.w3.org/2000/svg">
<g clip-path="url(#clip0_2277_4070)">
<path d="M11.1068 15.8094C9.88416 15.0942 9.41836 14.1596 9.33832 13.7817C6.36024 16.4765 8.81795 19.6502 10.4191 20.9003C10.3667 20.22 10.8557 17.2229 11.1068 15.8094Z" fill="#5C95FF"/>
<path d="M48.4385 26.0689C49.6696 26.7971 50.0978 27.4206 50.4253 28.3908C53.4459 25.6844 50.7914 22.0519 49.1808 20.7817C49.2304 21.4689 48.699 24.6427 48.4385 26.0689Z" fill="#5C95FF"/>
<path d="M29.7295 40.5308C40.395 40.5308 49.0412 31.9066 49.0412 21.2682C49.0412 10.6297 40.395 2.00562 29.7295 2.00562C19.0641 2.00562 10.418 10.6297 10.418 21.2682C10.418 31.9066 19.0641 40.5308 29.7295 40.5308Z" fill="url(#paint0_radial_2277_4070)"/>
<mask id="mask0_2277_4070" style="mask-type:luminance" maskUnits="userSpaceOnUse" x="10" y="2" width="40" height="39">
<path d="M48.8897 23.6451C50.1986 13.0791 42.6796 3.45444 32.0954 2.14774C21.5113 0.841051 11.87 8.34717 10.5611 18.9131C9.25215 29.479 16.7711 39.1037 27.3553 40.4105C37.9394 41.7171 47.5807 34.211 48.8897 23.6451Z" fill="white"/>
</mask>
<g mask="url(#mask0_2277_4070)">
<path d="M31.1327 22.2993C31.5242 22.1705 32.105 22.3465 32.548 22.1919C32.733 22.1276 31.4425 21.4576 31.1327 21.6681C30.9951 21.7625 31.3393 21.9944 31.3393 22.0932C31.3393 22.2349 30.7929 22.0545 30.737 22.2048C30.6768 22.3594 31.1242 22.3036 31.1371 22.2993C30.9306 22.368 31.3307 22.2349 31.1371 22.2993H31.1327Z" fill="white"/>
<path d="M41.8651 28.8869C41.4134 28.9469 41.2715 28.4102 40.8542 28.3501C40.652 28.32 39.6454 28.2513 39.568 28.4703C39.7186 28.0366 39.254 27.809 38.8066 27.8175C38.755 27.8175 38.299 28.3629 38.2345 28.2384C38.1528 28.0795 38.8539 27.8047 38.3248 27.6973C38.1442 27.663 37.7312 27.912 37.7699 27.9335C37.5462 27.8175 37.9764 27.6286 38.0151 27.5771C38.2732 27.225 38.1312 27.2636 37.9334 27.0403C37.8301 26.9244 37.8989 26.5465 37.7441 26.4906C37.4817 26.3876 37.3096 26.1514 37.0171 26.044C36.8622 25.9882 36.4106 25.9367 36.2428 25.9452C36.0535 25.9538 35.9718 25.7692 35.8256 25.7735C35.7911 25.7735 34.9738 24.8889 34.8103 25.2195C35.0598 24.7171 34.3415 24.9833 34.4016 24.7557C34.4576 24.7257 34.5092 24.6913 34.5566 24.6484C34.4059 24.5324 34.0962 24.6441 33.9629 24.6913C33.6187 24.8201 33.3477 24.5582 33.1069 24.657C32.9649 24.7128 32.1562 24.2147 32.1519 24.2361C32.1218 24.4594 32.0013 24.4036 31.8035 24.5195C31.6228 24.6269 31.9583 25.2281 31.6443 25.1078C31.2356 24.949 31.7131 24.3692 31.7906 24.2233C31.911 23.9913 31.2614 24.3134 31.227 24.3435C31.0077 24.5238 30.7495 24.4251 30.5775 24.5367C30.3538 24.6828 30.186 25.1637 29.9881 25.3956C29.9795 25.4042 29.3601 24.8803 29.0934 24.979C28.4911 25.2152 28.3148 25.1723 27.9104 24.6012C27.8459 24.511 27.8889 23.7251 27.975 23.6306C28.7278 22.8104 26.3704 23.0767 26.3661 23.0681C26.3317 23.0423 26.564 22.2608 26.5855 22.2822C26.736 22.1319 26.7189 21.8571 26.7146 21.6639C26.706 21.1872 27.0974 21.4663 26.6715 21.2001C26.4392 21.054 25.7768 21.2301 25.8026 21.5694C25.8155 21.7669 25.5015 22.0031 25.5187 22.1233C25.4886 21.9387 24.155 22.5613 24.0776 21.7626C24.0432 21.4191 23.6646 21.2087 23.6475 20.7663C23.6345 20.5087 23.7163 19.7529 23.7722 19.7872C23.7851 19.594 23.7507 19.4566 23.7636 19.2719C23.7722 19.083 23.9787 19.0529 23.9787 18.9112C23.9787 18.8468 24.6541 18.5548 24.7057 18.4689C24.8003 18.2928 26.1898 18.5977 26.2371 18.6621C26.022 18.34 26.0177 18.2756 26.4693 18.2584C26.5812 18.2584 27.0759 18.1554 27.2565 18.2971C27.6308 18.5891 27.7126 18.267 28.1556 18.7094C28.1987 18.7523 28.3578 19.521 28.3621 19.6155C28.3965 20.032 28.9256 20.1823 28.9945 19.6327C29.0589 19.1087 28.5471 18.6363 28.5643 18.1125C28.5729 17.8634 29.1794 17.069 29.4547 17.069C29.6698 17.069 29.5795 16.9831 29.7429 16.8671C30.1301 16.588 29.8161 16.6867 30.0054 16.4677C30.0655 16.399 30.3796 16.5966 30.4226 16.3346C30.3624 16.2874 30.2979 16.2616 30.2204 16.253C30.1731 16.1929 29.8247 15.0206 30.2032 15.0206C30.0655 15.0206 30.371 15.7721 30.2935 15.8236C30.6291 15.6132 30.3236 15.2782 30.4226 15.1108C30.3322 15.2653 31.1883 14.9433 30.857 14.7372C30.8011 14.7028 31.4378 14.604 31.4765 14.531C31.5195 14.4451 31.0077 14.5611 31.0077 14.5181C31.0077 14.4193 31.726 14.3378 31.6529 14.2433C31.9368 14.5997 31.8465 13.8182 31.9024 13.7108C32.0314 13.4703 33.7822 12.7188 33.7736 12.7188C33.8511 12.7918 33.6962 12.8777 33.7263 12.9035C33.7822 12.9507 34.0231 13.0108 34.0748 12.9851C33.8167 13.1182 33.6532 12.9765 33.408 13.2127C33.0294 13.582 33.6747 13.6164 33.9156 13.3028C33.9328 13.2814 35.3265 12.7747 35.2104 12.6974C35.0426 12.5728 35.0254 12.7188 35.0684 12.4698C35.0555 12.5513 34.5608 12.8863 34.4146 12.8777C34.1651 12.8606 34.0231 12.7231 33.8209 12.6029C33.5413 12.4354 33.7779 12.2679 33.7263 12.1005C33.6876 11.9716 33.5198 12.1648 33.4596 12.1348C33.494 12.1477 34.2683 11.3919 33.309 11.5594C33.0423 11.6066 32.7541 11.6882 32.5132 11.817C32.3283 11.9158 32.083 12.3495 31.8636 12.3452C31.9196 12.3452 32.5089 11.6152 32.6122 11.5465C32.9133 11.3317 33.2402 11.1643 33.6446 11.1471C34.0919 11.1299 34.5479 11.1342 34.991 11.1643C35.1114 11.1643 36.3977 10.5545 36.3547 10.4815C36.2901 10.4471 36.2256 10.4171 36.1567 10.3913C36.174 10.4042 36.4622 10.2109 36.3245 10.1122C36.0148 9.88459 36.161 10.0478 35.8772 10.0091C35.6965 9.98338 36.1267 9.67847 35.6406 9.76866C35.619 9.76866 35.0942 10.0521 35.0383 10.0177C34.8404 9.89319 35.7954 9.63552 35.7954 9.63122C35.7653 9.67847 34.3156 8.93127 34.2683 8.79383C34.2683 8.79813 34.7974 8.62635 34.3586 8.3172C34.2253 8.21841 33.6144 7.29943 33.593 7.31657C33.4467 7.41966 33.2961 7.84051 33.2488 8.00369C33.3047 7.80616 32.8702 8.14112 32.9391 8.11532C32.767 8.18837 32.6035 8.07667 32.5132 7.95214C32.4745 7.89635 32.2508 7.75892 32.1648 7.69447C32.0357 7.59144 32.2164 7.25648 32.2121 7.15769C32.2121 7.09331 31.5755 7.14055 31.5496 6.98161C31.5195 6.78839 30.9732 6.53503 30.7883 6.59947C30.4312 6.72831 30.0312 6.37615 29.7214 6.61661C29.786 6.56507 29.7644 7.20924 29.7214 7.1749C30.0655 7.47121 29.7214 7.63869 29.5795 7.9178C29.4633 8.12822 30.5861 8.54046 30.0011 9.0429C29.5063 9.47235 29.0805 9.27906 29.4031 9.94898C29.4762 10.1036 29.3902 10.6876 29.4289 10.7048C29.2138 10.6189 29.1751 10.8508 29.1063 10.8208C28.8955 10.7349 28.9643 10.6533 28.8052 10.5416C28.7105 10.4729 28.3922 10.2367 28.3965 10.1122C28.3965 10.0048 28.4697 9.44654 28.4008 9.37355C28.1212 9.0687 26.9984 9.45944 26.8135 8.90122C26.6844 8.52332 25.6994 8.665 25.437 8.70794C25.5273 8.6908 25.4111 8.00799 25.1789 8.04663C24.5895 8.14542 24.9165 7.45831 25.0627 7.22214C25.1917 7.00742 25.3724 6.90433 25.5359 6.73255C25.5445 6.72401 25.652 6.58657 25.6477 6.58227C25.5574 6.50498 26.1553 6.52642 26.1166 6.3332C26.1037 6.28596 25.2778 6.10988 25.2993 6.07984C25.4413 5.84366 26.1037 6.42339 26.3317 5.97251C26.2285 6.17433 27.5018 5.74059 27.1877 5.5817C27.0716 5.52159 26.3403 5.61176 26.4006 5.3627C26.3661 5.48723 27.9448 5.55164 27.3254 5.15227C27.2996 5.1351 27.9363 5.13939 28.0137 5.13939C28.1126 5.13939 27.8072 4.96332 27.8115 4.94185C27.7986 4.99768 28.3148 5.10503 28.4954 4.98909C28.9859 4.66702 28.4868 4.70567 28.4782 4.38359C28.4782 4.40077 29.0159 4.25047 28.8095 4.10017C28.6718 3.99711 28.3535 3.97564 28.1814 3.91551C27.833 3.79957 27.6179 4.08299 27.7685 4.08729C28.0352 4.09588 27.7469 4.25906 27.691 4.27624C27.5491 4.31489 27.6265 4.51242 27.4673 4.58113C27.3684 4.62408 27.4458 4.44801 27.3555 4.4566C27.3469 4.4566 27.3727 5.01056 27.1533 4.88173C26.8221 4.68849 27.0157 4.53819 27.0157 4.31918C27.0157 4.229 26.7103 4.06582 26.5984 4.14741C26.5382 4.19035 26.4306 4.44801 26.3489 4.46089C26.0865 4.49954 26.4349 4.0744 26.4263 4.08729C26.521 3.97564 25.9188 4.02288 25.9316 4.03147C25.751 3.9241 26.0865 3.84681 26.1209 3.81675C26.1725 3.75663 25.3896 3.29714 25.381 3.2542C25.3724 3.22414 25.5961 3.11678 25.6133 3.1039C25.8456 2.93642 25.6133 3.06525 25.6133 2.9536C25.6176 3.12537 26.7619 2.68735 26.5382 2.52846C26.4823 2.48552 25.9402 2.47693 25.8413 2.47693C25.7037 2.47693 25.5617 2.49411 25.424 2.51987C25.1358 2.5757 25.4025 2.56711 25.3509 2.653C25.295 2.66158 25.2391 2.66158 25.1874 2.653C25.1703 2.6487 25.1444 3.42168 25.1272 3.46891C25.0842 3.54621 24.9079 3.36585 24.8218 3.55909C24.7702 3.67504 24.9595 3.68363 24.8691 3.76521C24.5379 4.05723 25.4499 4.10447 25.4197 4.13453C25.381 4.16888 25.2735 4.40077 25.295 4.38789C25.3337 4.32777 25.3896 4.28483 25.4627 4.25047C25.6821 4.32777 25.2735 4.58113 25.1789 4.61119C24.8003 4.73573 25.2003 4.79584 24.9982 4.9075C24.8863 4.96762 24.6196 4.87315 24.7358 4.74861C24.9809 4.47807 24.5938 4.67131 24.4906 4.53389C24.4906 4.53389 24.9208 4.41795 24.9982 4.41795C25.5359 4.43513 24.8261 4.0787 24.8132 4.20753C24.882 4.16459 24.9552 4.1517 25.0369 4.16459C24.9681 4.17747 24.6196 4.04434 24.4949 4.01858C24.4604 4.00999 24.0432 4.25047 24.0002 4.29342C23.8453 4.42654 24.71 4.28912 24.168 4.55107C23.9572 4.65413 24.3443 4.76579 23.8797 4.7572C23.6259 4.7572 23.3592 4.88603 23.1141 4.85167C22.9247 4.82161 22.8947 4.74432 22.6796 4.76149C22.4301 4.77867 22.4129 4.50383 22.2709 4.50383C22.1677 4.50383 21.3804 4.78297 21.531 4.82161C21.6687 4.85597 22.1634 4.56825 22.2365 4.62837C22.2365 4.62837 21.5568 4.83879 21.7633 5.1308C21.9095 5.33693 21.6944 5.16516 21.673 5.29828C21.6428 5.50441 21.5827 5.11362 21.5912 5.17375C21.5095 4.61119 20.0986 5.37129 19.8103 5.11792C19.7071 5.02774 20.176 4.92468 20.1587 4.88173C20.0512 4.61549 19.1393 4.70996 18.8467 4.69708C18.623 4.68419 18.5026 4.54678 18.2531 4.58972C18.2101 4.59402 17.6337 4.89891 17.6896 4.79584C17.7154 4.74861 17.8488 4.53389 17.7197 4.53819C17.5821 4.53819 17.4186 5.03633 17.2551 4.8302C17.2465 4.82161 17.0272 4.33206 16.9239 4.49524C16.9583 4.43942 16.8292 4.77438 16.8379 4.70137C16.8164 4.91609 16.6056 4.80443 16.5454 4.8302C16.3776 4.90321 16.1582 5.00627 16.0033 5.10074C16.0033 5.10074 15.5259 5.46146 15.6248 5.33263C15.771 5.1351 16.5368 4.87744 16.5841 4.73143C16.6314 4.55966 15.5732 5.19092 15.5345 5.16086C15.4785 5.11792 15.5602 5.02774 15.4054 5.14368C15.3151 5.2124 15.1731 5.18233 15.1 5.29398C15.0441 5.37987 15.2505 5.37558 15.1645 5.45717C15.0011 5.61176 14.4031 5.27681 14.2225 5.31546C13.7708 5.40563 13.3621 5.25533 12.919 5.4314C12.8287 5.46146 11.9296 5.513 11.9383 5.513C11.9727 5.24245 11.3747 5.63324 11.3317 5.5817C11.3489 5.53446 11.3747 5.49582 11.4092 5.46576C11.4349 5.28969 10.665 5.90807 10.6779 5.8823C10.7123 5.89519 10.7209 5.92956 10.7037 5.98535C10.6305 6.10134 10.3552 6.10988 10.2348 6.3246C10.0412 6.66816 10.0541 6.81844 9.75729 6.94727C9.61105 7.01172 10.0326 7.36812 10.0455 7.41536C10.0971 7.56994 10.1875 7.41536 10.295 7.39822C10.2391 7.40676 10.4929 7.65583 10.4756 7.5614C10.4542 7.47981 9.97238 8.19261 10.024 7.72027C10.0154 7.69447 9.53789 8.17546 9.52497 8.3C9.5035 8.39019 9.71428 8.33004 9.70136 8.36868C9.58521 8.62635 9.87345 8.54906 9.94223 8.50182C9.97238 8.48038 10.1057 8.47608 10.1272 8.42453C10.1875 8.2914 10.4283 8.15396 10.3767 8.24845C10.295 8.39879 10.4154 8.6779 10.2262 8.72944C10.0928 8.76809 10.1875 8.77669 10.0842 8.95271C10.0326 9.0515 9.98099 8.92267 9.93368 8.94841C9.92507 8.94841 9.55943 9.82444 9.77021 9.73001C9.77876 9.72571 9.83899 9.98338 9.86483 10.0349C9.95515 10.2152 10.11 9.90603 10.1229 9.91893C10.1745 9.99192 10.1143 10.4257 10.1659 10.4085C10.2434 10.387 10.2434 10.2882 10.3079 10.2324C10.4112 10.138 10.424 10.3054 10.4972 10.3269C10.467 10.3183 10.695 10.0134 10.7768 10.0478C10.88 10.095 10.4456 10.9066 10.4112 10.971C10.3466 11.0526 9.95084 11.6367 9.98961 11.6925C9.98961 11.7139 10.5015 11.117 10.5445 11.0011C10.6305 10.6232 11.2457 10.3054 11.293 9.87169C11.2586 9.84165 11.2241 9.82444 11.1811 9.8202C11.1768 9.8202 11.5597 9.22758 11.6027 9.13309C11.7403 8.79813 11.9426 8.98705 11.9426 8.99135C11.8694 9.08584 11.7102 8.94411 11.6672 9.21898C11.6672 9.21898 11.5683 9.64843 11.6371 9.54533C11.5898 9.57108 11.5554 9.61832 11.5339 9.68277C11.607 9.76436 11.7619 9.55393 11.8307 9.47235C11.977 9.30487 12.063 9.34781 12.2007 9.25332C12.2652 9.20608 12.0716 8.85398 12.2737 8.82817C12.3426 8.81957 12.5577 8.95271 12.5792 8.93557C12.5878 8.93127 12.3813 9.01716 12.4544 9.07724C12.4544 9.07724 12.79 8.91837 12.79 8.91406C12.8502 9.12879 13.1986 8.95271 13.3922 8.89262C13.4395 8.87542 13.4868 8.99565 13.5427 8.99565C13.6159 8.99565 13.745 8.80673 13.7923 8.84968C13.9041 8.94841 13.6116 9.00425 13.8181 9.0687C13.8783 9.08584 14.2784 9.37355 14.3042 9.33491C14.3171 9.28767 14.3257 9.24472 14.33 9.20178C14.3472 9.15883 14.5666 9.30917 14.5795 9.29196C14.6225 9.22328 14.5279 9.02576 14.5795 8.98705C14.6526 8.92697 14.6698 9.22758 14.6698 9.21898C14.6397 9.52389 14.4676 9.4208 14.4806 9.37786C14.4934 9.34351 14.1407 9.63982 14.4719 9.65273C14.502 9.65273 14.5408 9.97478 14.5967 9.93614C14.6698 9.88459 14.558 9.47664 14.6612 9.50239C14.6784 9.55393 14.6827 9.60978 14.6698 9.66987C14.7687 9.8159 14.8462 9.29627 14.829 9.33491C14.9107 9.15453 14.8419 9.68707 14.8419 9.66126C14.8419 9.63122 14.5193 10.0048 14.7085 10.0005C14.6612 10.0005 14.872 9.87599 14.8419 9.90603C15.0225 9.74285 14.9451 10.0821 15.1043 9.97908C15.1731 9.93614 14.9881 9.85455 14.9967 9.8116C15.0268 9.62692 15.3151 9.88889 15.1473 10.0263C14.9537 10.1895 15.0484 9.98762 14.8935 10.0263C14.8978 10.0263 14.8505 10.4386 14.8763 10.46C14.9451 10.5073 15.2075 10.1938 15.3495 10.2023C15.3194 10.2023 15.5043 10.5717 15.5129 10.5674C15.2075 10.8122 15.7237 10.8336 15.7194 10.8036C15.7194 10.7907 15.6377 11.1944 15.7796 11.0054C15.8442 10.9195 16.0679 11.2115 15.956 11.2287C15.7022 11.2588 16.3733 11.7398 16.3561 11.6882C16.4206 11.8428 16.7733 11.8299 16.8809 11.933C16.911 11.963 17.4444 12.7489 17.0529 12.7875C17.0529 12.7875 16.9927 12.1777 16.7174 12.1305C16.5454 12.1005 16.5324 11.7226 16.3561 11.7569C16.3087 11.7655 15.7667 11.701 15.8098 11.7483C15.9732 11.9201 16.2399 12.0189 16.3862 12.2464C16.5109 12.4354 16.8637 12.7918 16.8335 13.1053C16.769 13.6979 16.554 14.4494 16.5668 15.1408C16.5755 15.6862 17.0873 15.961 17.0745 16.442C17.0745 16.4634 17.4401 17.0131 17.4401 17.0174C17.6595 17.0088 18.137 17.2536 18.1929 17.5112C18.2402 17.7432 18.5155 18.5033 18.7005 18.6406C18.8597 18.7609 19.0317 18.821 19.0489 19.0701C19.0618 19.3192 18.851 19.083 18.8296 19.1946C18.7865 19.3964 19.1995 19.4437 19.2812 19.5038C19.535 19.6971 19.4318 20.0191 19.5866 20.1479C19.6296 20.1866 20.219 20.7148 20.1932 20.732C20.4384 20.5559 20.1157 20.3025 19.9695 20.2768C19.8533 20.2553 19.4447 18.9928 19.221 18.8296C19.2253 18.8296 18.6317 17.8805 18.8467 17.8548C18.9242 17.8462 19.3242 18.0738 19.3242 18.0738C19.2726 18.1812 19.4404 18.9155 19.535 18.8124C19.6382 18.6879 20.632 20.0535 20.7137 20.1393C21.0062 20.44 21.3159 20.7706 21.4579 21.1872C21.5009 21.316 21.3546 21.4577 21.359 21.5135C21.3977 21.8399 21.5998 21.8356 21.8063 22.0031C22.2064 22.3381 22.7957 22.5313 23.2904 22.7331C23.6732 22.8877 23.8754 23.0939 24.3056 22.9221C24.6325 22.7933 24.9466 23.0638 25.1746 23.2656C25.3509 23.4245 26.379 24.0085 26.6285 23.8067C26.8006 23.6693 27.3082 24.8889 27.3383 24.8974C27.562 24.9876 27.9018 25.3011 28.1212 25.3269C28.6976 25.4042 28.874 25.9452 29.0504 25.2796C29.2052 24.7085 29.7731 25.9281 29.8204 26.0183C29.915 26.1986 29.6956 26.4477 29.8763 26.641C30.0871 26.8685 29.4977 27.0789 29.4547 27.182C29.317 27.5255 29.0546 27.5857 28.9084 27.9163C28.8267 28.101 28.831 28.1997 28.7837 28.3715C28.7105 28.612 28.9945 28.5133 29.0719 28.6335C29.1278 28.7237 28.7148 28.9684 28.6718 29.0543C28.5341 29.3334 28.8525 29.6298 29.0246 29.7543C29.416 30.0292 29.5494 30.6046 29.7601 30.9653C29.8763 31.1671 30.1172 31.7941 30.2935 31.9015C30.5603 32.0646 31.9497 32.61 31.9454 32.8934C31.9454 33.4689 31.8379 33.9928 31.8293 34.5124C31.8249 34.7528 31.5884 35.0191 31.6142 35.2381C31.6185 35.2897 31.5496 35.7363 31.5195 35.762C31.4421 35.8479 31.3862 36.346 31.4077 36.4534C31.4464 36.6638 31.1496 37.0073 31.0377 37.1748C30.9689 37.2779 30.827 37.4024 30.9646 37.5484C31.1152 37.7117 30.7495 37.8705 30.857 38.0294C30.9044 38.1067 30.5043 38.3901 30.8399 38.373C31.0077 38.3687 30.8313 38.0938 31.055 38.0552C31.1754 38.0552 30.9517 38.7981 30.9044 38.8196C30.8097 38.9097 30.8872 38.5748 30.7237 38.6048C30.6506 38.622 30.8054 38.6907 30.8054 38.7079C30.8054 38.695 30.272 38.9398 30.414 38.9484C30.4226 38.9484 30.7538 38.8925 30.7581 38.9741C30.7581 39.0214 30.6291 39.0042 30.6463 39.0729C30.6592 39.1245 30.9302 39.0343 30.913 39.1159C30.9216 39.0686 29.9193 39.2318 30.6764 39.1717C30.7753 39.1631 30.4312 39.3263 30.4527 39.3391C30.6162 39.4422 30.7065 39.2747 30.7581 39.2919C30.9431 39.3692 30.4183 39.5024 30.5387 39.5539C30.5689 39.5668 30.8183 39.5195 30.8614 39.5496C30.8829 39.5668 30.685 39.6097 30.7194 39.614C30.8313 39.6269 31.055 39.5883 31.0894 39.6269C31.1324 39.6741 30.6506 39.6312 30.8097 39.7042C30.87 39.7342 31.2658 39.6097 31.3388 39.6913C31.3217 39.6698 30.9087 39.7557 30.8829 39.7643C30.8829 39.7643 31.3862 39.7213 31.3991 39.7299C31.4378 39.76 30.827 39.8244 30.8097 39.8029C30.8313 39.8287 31.1668 39.8845 31.2227 39.8674C31.3174 39.8416 31.1023 39.8545 31.1797 39.8244C31.2528 39.7987 31.5195 39.8588 31.4593 39.7686C31.4335 39.7299 31.7088 39.6698 31.7389 39.6956C31.769 39.7213 31.5798 39.7342 31.5625 39.7514C31.5109 39.7987 31.7776 39.7686 31.8077 39.7815C31.7519 39.7643 31.6572 39.8674 31.6787 39.8631C31.5927 39.876 31.6357 39.8115 31.5884 39.8072C31.4593 39.7901 31.5539 39.8674 31.5411 39.8674C31.4937 39.8674 31.412 39.8158 31.3561 39.8373C31.3948 39.8244 31.2442 39.9146 31.2442 39.8888C31.2442 39.8631 31.5282 39.9576 31.5195 39.9533C31.5582 39.9619 31.5582 39.9103 31.6056 39.906C31.6142 39.906 31.7604 39.9962 31.8336 39.9662C31.8163 39.9576 31.8206 39.949 31.8422 39.9404C31.9196 39.9275 32.01 39.9833 32.0701 39.9833C32.1605 39.9919 32.01 39.9318 32.0701 39.9361C32.2164 39.9404 32.7455 39.8974 32.7713 39.8974C32.6896 39.8888 31.9712 39.8029 32.0357 39.76C32.1949 39.6483 31.7733 39.7256 31.8249 39.6656C31.8593 39.6226 32.0185 39.6827 32.0744 39.6656C32.096 39.6612 31.8895 39.4895 32.0744 39.4036C32.2723 39.3177 32.6853 39.176 32.7885 39.0386C32.8659 38.9398 32.0056 38.8754 32.5864 38.6864C32.9219 38.5748 32.9821 38.4889 33.2187 38.3042C33.2015 38.2828 33.1757 38.2656 33.1413 38.2527C33.1413 38.2656 33.6704 38.2484 33.4596 38.1539C33.2617 38.0681 33.2531 38.2398 33.1155 38.0337C32.9434 37.776 33.5327 37.9908 33.7349 37.9135C33.9457 37.8404 33.7822 37.5871 33.8941 37.5184C33.9457 37.4883 34.5522 37.484 34.6383 37.4711C35.0168 37.4067 35.0985 37.3209 35.3351 37.1319C35.5632 36.9559 34.9867 36.578 34.9953 36.5694C35.262 36.3976 35.8513 36.8442 36.2514 36.4878C36.359 36.4062 37.1505 35.5344 37.1806 35.5473C37.2279 35.5902 36.9741 35.8651 36.9439 35.8737C37.5892 35.689 37.8818 34.8473 37.9678 34.4007C38.0108 34.1731 38.7507 34.0486 38.8453 33.9154C39.0604 33.6192 39.4605 33.7394 39.7358 33.6707C40.0326 33.602 40.4369 32.8462 40.523 32.5714C40.6176 32.2751 40.8198 32.0904 40.8241 31.7297C40.8241 31.6009 40.8499 31.0512 40.9102 30.9696C40.9832 30.8751 41.0306 31.0383 41.1252 30.9782C41.3747 30.815 41.336 30.5015 41.6414 30.3512C42.063 30.1451 42.3985 28.8353 41.8565 28.904C41.7404 28.9212 41.9726 28.8869 41.8565 28.904L41.8651 28.8869ZM25.7338 22.3638C25.8026 22.3638 25.9531 22.3681 26.0736 22.3724C25.9531 22.3724 25.8026 22.3681 25.7338 22.3638ZM26.2069 22.3724C26.1424 22.3724 26.2328 22.3724 26.2069 22.3724V22.3724Z" fill="white"/>
<path d="M30.7878 21.6295C30.8566 21.5436 29.4155 20.9423 29.3295 20.8994C28.9552 20.7319 28.5552 20.5859 28.1422 20.7019C28.1078 20.7105 27.5271 20.938 27.6218 21.0626C27.7852 21.2816 28.1594 20.5859 28.4046 20.8522C28.6412 21.1098 28.9381 20.9509 29.2219 21.1442C29.4886 21.3245 30.3662 22.1576 30.7921 21.6252C30.7362 21.6938 30.848 21.5564 30.7921 21.6252L30.7878 21.6295Z" fill="white"/>
<path d="M29.5152 22.2306C29.5711 22.3251 30.0916 22.4625 30.1475 22.3423C30.2034 22.2178 29.4463 22.1147 29.5152 22.2306Z" fill="white"/>
<path d="M33.0338 22.2522C33.1542 22.4411 33.507 22.3252 33.5371 22.2522C33.593 22.1148 32.9091 22.0632 33.0338 22.2522Z" fill="white"/>
<path d="M34.238 39.6183C34.3155 39.6311 34.6725 39.5754 34.6424 39.5453C34.5779 39.4852 34.1563 39.6054 34.238 39.6183Z" fill="white"/>
<path d="M33.9288 39.6139C34.0449 39.6354 34.3417 39.5152 34.23 39.5066C34.1181 39.5023 33.8169 39.5924 33.9288 39.6139Z" fill="white"/>
<path d="M25.6266 27.7402C25.5019 27.9292 25.7686 28.1181 25.8202 28.0365C25.8847 27.9378 25.7514 27.5556 25.6266 27.7402Z" fill="white"/>
<path d="M36.8707 4.12162C36.8621 4.00997 36.1696 3.69649 36.1136 3.86826C36.0061 4.19463 36.8837 4.32775 36.8707 4.12162C36.8751 4.2161 36.8664 4.02715 36.8707 4.12162Z" fill="white"/>
<path d="M44.2829 4.63263C44.2183 4.6541 43.2763 4.44368 43.2763 4.46086C43.2806 4.46944 43.5473 4.1216 43.4225 4.11302C43.5129 4.11302 44.541 4.88599 44.3001 4.36209C44.1581 4.05719 43.7408 3.98848 43.586 3.73083C43.5301 3.63206 44.0162 3.85107 44.0635 3.821C44.2226 3.72224 44.0506 3.57623 43.8699 3.55046C43.7452 3.53329 43.4612 3.62777 43.3408 3.51181C43.3666 3.53329 43.4613 3.27993 43.4613 3.28422C43.4613 3.28422 44.1108 3.46888 44.1926 3.47746C44.67 3.51181 44.0936 3.25416 43.9946 3.17686C43.9473 3.13392 44.6657 3.27993 44.5711 3.11674C44.5582 3.09527 44.1624 2.97932 44.0807 2.91061C43.8957 2.75172 44.4764 2.88914 44.4636 2.76031C44.4463 2.56707 43.5516 2.245 43.5817 2.22353C43.7279 2.12047 44.2786 2.30082 44.485 2.29653C44.726 2.28794 43.8785 1.96158 43.8957 2.00452C43.8398 1.90146 44.1538 2.03028 44.1839 1.98734C44.2786 1.84992 43.4441 1.86281 43.5215 1.90146C43.3795 1.82846 43.6978 1.52356 43.7968 1.50209C43.7839 1.50209 44.1409 1.12848 44.2313 1.25302C44.0592 1.01683 43.7882 1.28308 43.6462 1.20149C43.5171 1.13278 44.4721 1.07266 44.4377 1.05978C44.3689 1.02113 43.857 0.961004 43.8484 0.973887C43.9172 0.862237 45.3411 0.991065 45.2379 0.733409C45.2035 0.651814 44.6399 0.578814 44.5582 0.570225C44.3904 0.548753 44.1581 0.531575 44.0506 0.591698C43.943 0.651814 44.0936 0.737703 43.8484 0.694759C43.7839 0.681875 43.3666 0.604581 43.3451 0.61317C43.1343 0.673286 42.9407 0.888004 42.6783 0.892298C42.6396 0.892298 42.8332 0.703348 42.8418 0.694759C42.988 0.578814 42.8117 0.329744 42.5579 0.467164C42.4934 0.501514 41.8697 0.703348 41.7922 0.630342C41.7105 0.553047 42.2224 0.548753 42.1794 0.48863C42.089 0.364099 40.5146 0.505808 40.4974 0.480041C40.3941 0.334039 42.7859 0.454281 42.9321 0.303978C42.9236 0.303978 41.6416 0.0506146 41.4223 0.054909C40.7813 0.0377318 40.1403 -0.0137994 39.508 0.0119662C39.1767 0.024849 39.1037 0.024849 39.0563 0.106441C39.0133 0.179444 38.6562 0.0162606 38.5057 0.0763808C38.4842 0.0849691 37.1205 0.106441 37.1378 0.110735C37.1851 0.123618 37.4303 0.149384 37.4303 0.175149C37.4303 0.200915 37.0948 0.183738 37.0431 0.196621C36.9657 0.213798 37.8088 0.359804 37.7744 0.402747C37.7185 0.441397 36.4194 0.136501 36.2086 0.200915C36.1139 0.226681 36.5312 0.29539 36.5484 0.32545C36.5871 0.402747 35.9032 0.252447 35.8902 0.248152C35.5246 0.170855 35.9677 0.398452 35.6537 0.419925C35.7268 0.41563 35.5634 0.235269 35.43 0.222387C35.301 0.205209 34.5052 0.239564 34.4277 0.273918C34.4578 0.29539 34.5008 0.316861 34.5568 0.334039C34.5223 0.38557 33.6491 0.192327 33.9029 0.381275C34.1008 0.531575 33.3996 0.441397 33.1501 0.484336C33.077 0.492925 32.2037 0.664697 32.5307 0.694759C32.6382 0.703348 33.1114 0.668992 33.0727 0.772059C33.0211 0.926654 32.7071 0.939531 32.4188 0.939531C32.1263 0.939531 31.851 1.01683 31.5498 1.04689C31.4681 1.05548 31.1627 1.07266 31.167 1.14137C31.1713 1.28308 31.5843 1.21437 31.7305 1.29596C31.8854 1.38614 32.2296 1.36467 32.4102 1.33032C32.6081 1.29167 32.9135 1.42479 32.7544 1.43767C32.6683 1.44197 31.4982 1.42049 31.5241 1.48491C31.5671 1.58368 32.0532 1.49779 32.0747 1.58368C32.0876 1.63092 31.8854 1.66957 32.0747 1.71251C32.2596 1.75116 32.5005 1.84133 32.707 1.83275C32.8404 1.82416 32.5393 1.72109 32.8576 1.75545C33.0081 1.77263 33.1759 1.73398 33.3092 1.75545C33.5114 1.78981 33.8513 1.77263 34.1051 1.80698C34.2987 1.83275 34.4578 1.87998 34.6428 1.92722C34.9138 1.99163 34.832 2.10758 35.0643 2.19776C35.4601 2.35665 35.4128 2.49836 35.7096 2.68302C35.8344 2.76031 35.7225 2.80755 35.9075 2.9192C36.0709 3.01368 35.701 3.04803 35.8085 3.13392C35.9204 3.2241 35.7096 3.34863 35.9677 3.38728C36.1871 3.42164 36.157 3.27563 36.3463 3.28422C36.243 3.27563 37.1076 3.77377 37.1076 3.77807C37.1119 3.79524 36.1785 3.55476 36.1957 3.675C36.2215 3.85965 36.9399 3.90689 37.0775 3.98419C37.2668 4.09154 37.198 4.31056 37.1851 4.44797C37.1851 4.5038 36.7721 4.43079 36.7033 4.46944C36.4022 4.64122 36.471 4.90746 36.7549 5.07065C36.7979 5.09641 36.4753 5.21236 36.6474 5.37125C36.8668 5.57308 37.0388 5.5602 37.0475 5.83933C37.0475 6.03255 38.1616 7.40672 38.4498 7.36378C38.7165 7.31229 39.4908 8.00795 39.6328 7.73738C39.6628 7.67729 39.7876 7.26075 39.8048 7.26075C40.0027 7.2221 39.6628 6.8571 39.6973 6.80556C39.7833 6.66812 40.1963 6.71107 40.1533 6.40185C40.1446 6.34607 40.1533 5.87798 40.0414 5.92091C40.1232 5.94236 40.2049 5.96817 40.2823 5.98961C40.4587 5.91662 40.05 5.78779 40.4931 5.79209C40.6737 5.79209 40.6565 5.50437 40.7727 5.56449C40.8071 5.62461 40.8157 5.68473 40.7985 5.74485C40.8974 5.92091 41.7836 5.52155 41.8051 5.35836C41.8223 5.26389 42.1062 5.22524 42.0589 5.12647C41.9427 4.89458 42.3299 5.14365 42.3945 5.06635C42.5063 4.93752 43.1773 5.03629 43.3494 5.01482C43.7065 4.96758 44.1022 4.70133 44.2829 4.63263C44.3603 4.60257 44.2054 4.66269 44.2829 4.63263Z" fill="white"/>
<path d="M39.1338 39.79C39.1338 39.8243 39.4306 39.9188 39.5296 39.8716C39.6887 39.7986 39.1338 39.7857 39.1338 39.79C39.1338 39.8243 39.1338 39.7685 39.1338 39.79Z" fill="white"/>
<path d="M32.0328 3.25657C31.9683 3.33387 32.278 3.58294 32.4071 3.58294C32.4888 3.58294 33.2158 3.49276 33.2158 3.47558C33.2158 3.30381 32.1103 3.1578 32.0328 3.26086C31.9597 3.35964 32.106 3.1621 32.0328 3.26086V3.25657Z" fill="white"/>
<path d="M24.1638 1.70818C23.9273 1.66094 24.1983 1.9186 24.2284 1.91431C24.0908 1.94007 23.9144 1.77259 23.7896 1.82842C23.6563 1.88424 23.8671 1.94866 23.8284 2.00019C23.7337 2.10326 23.3723 1.59223 23.1788 1.80266C22.8475 2.16337 23.9961 2.04313 24.1725 2.06461C24.2843 2.0732 23.8455 2.34803 24.3919 2.27503C24.4134 2.27503 24.9769 2.17626 24.865 2.07749C24.7532 1.97443 24.9296 1.85418 24.7317 1.75971C24.6413 1.71677 24.3144 1.74253 24.1595 1.71247C23.9746 1.67812 24.3445 1.74683 24.1595 1.71247L24.1638 1.70818Z" fill="white"/>
<path d="M14.9063 10.7134C14.7256 10.8422 15.0569 11.3232 15.1773 11.2244C15.2074 11.1987 15.1773 10.5115 14.9063 10.7134C15.087 10.5802 14.7256 10.8465 14.9063 10.7134Z" fill="white"/>
<path d="M17.9131 3.88976C17.9904 3.88976 18.1367 4.2333 18.2228 4.13024C18.3432 3.97994 18.6056 4.0143 18.7605 3.92841C18.8594 3.86829 19.1734 3.54193 19.2465 3.45174C19.3455 3.32291 19.9176 3.1855 20.0853 3.1125C20.679 2.84625 18.055 2.78613 18.0722 3.0352C18.0722 3.1082 18.2572 3.12108 18.1755 3.21556C18.1539 3.24133 17.9087 3.42598 17.9474 3.45174C18.1453 3.58486 17.229 3.84682 17.9131 3.88976C18.0894 3.89835 17.7367 3.88117 17.9131 3.88976Z" fill="white"/>
<path d="M18.7819 2.39956C18.9454 2.33085 19.0099 2.36521 19.1647 2.26214C18.9195 2.42103 19.6422 2.2922 19.5261 2.23638C19.6164 2.27502 20.0165 1.83701 19.9219 2.06031C19.7885 2.38238 20.6574 1.76401 20.58 1.76401C20.3692 1.73824 19.9089 1.77689 19.6379 1.90572C19.3583 2.04313 19.1862 2.10754 18.9023 2.20632C18.683 2.27932 18.7432 2.41673 18.7776 2.40386C18.6873 2.4425 18.8679 2.36521 18.7776 2.40386L18.7819 2.39956Z" fill="white"/>
<path d="M20.3654 2.12471C20.331 2.13759 20.2966 2.15047 20.2622 2.16336C20.1718 2.24494 20.4859 2.24494 20.4859 2.24065C20.3912 2.26642 20.0772 2.25353 20.0428 2.37377C20.0299 2.41672 20.3525 2.33513 20.3998 2.33942C20.374 2.33942 19.8965 2.48113 19.9094 2.49402C20.1073 2.72591 20.5676 2.3523 20.7569 2.3523C20.7396 2.39095 20.7396 2.42531 20.7569 2.45966C20.8386 2.45966 21.2946 2.33513 21.3032 2.39525C21.3118 2.48543 20.6751 2.55843 20.6063 2.60567C20.4385 2.71732 20.8859 2.70443 20.9203 2.70014C21.144 2.66578 21.4752 2.57561 21.6688 2.45537C21.9054 2.30507 22.4732 2.49402 22.7228 2.28789C23.1916 1.90569 22.413 2.13329 22.3313 2.06888C22.2582 2.01306 21.9742 1.60939 21.7462 1.98729C21.7807 2.01306 21.828 2.03023 21.8925 2.03453C21.8366 1.97011 21.7936 2.33513 21.9312 2.22347C21.7032 2.41242 21.3075 2.12471 21.1957 2.09464C21.0408 2.05599 20.8257 2.11182 20.7396 2.02594C20.6407 1.92287 20.4859 2.10323 20.3654 2.12041C20.2148 2.13759 20.5159 2.10323 20.3654 2.12041V2.12471Z" fill="white"/>
<path d="M33.8041 11.3102C33.8342 11.409 34.6085 11.7268 34.63 11.5893C34.6515 11.4519 33.7826 11.2243 33.8041 11.3102Z" fill="white"/>
<path d="M19.5223 2.43393C19.7073 2.43393 19.9309 2.29651 19.9438 2.2321C19.9524 2.16768 19.4319 2.43393 19.5223 2.43393Z" fill="white"/>
<path d="M31.452 3.59036C31.8553 3.56393 31.4222 3.30955 31.3131 3.48134C31.2767 3.5342 31.0222 3.31946 30.9329 3.31285C30.7775 3.29964 30.794 3.1741 30.5923 3.15098C30.5229 3.14107 30.4568 3.13776 30.3874 3.13776C30.1593 3.13776 30.2551 3.2666 30.1361 3.28642C30.0402 3.30294 30.0667 3.19392 29.9841 3.20714C29.8849 3.22035 29.7956 3.29964 29.6964 3.29964C29.8154 3.29303 29.5906 2.93624 29.5807 2.91642C29.498 2.77436 29.1906 2.93954 29.0715 2.95937C28.8534 2.99571 28.5392 3.09151 28.7971 3.23687C28.8434 3.2633 28.6054 3.32276 28.6781 3.36902C28.7409 3.40866 28.8831 3.39214 28.8864 3.47143C28.8864 3.52098 28.5161 3.43178 28.5425 3.28973C28.5227 3.23687 28.5128 3.18401 28.5128 3.12785C28.5624 3.06178 28.8534 2.95276 28.8566 2.8966C28.8699 2.74132 27.9805 3.07499 27.9045 3.16089C27.802 3.27321 27.7788 3.40205 27.8119 3.52759C27.8383 3.6267 28.2681 3.49786 28.3211 3.60357C28.3508 3.66634 27.8747 3.58706 27.878 3.66634C27.8879 3.85795 28.8897 3.85135 29.0616 3.87448C29.1839 3.88769 30.0667 3.82161 30.0766 3.84143C30.0204 3.81831 29.9841 3.78197 29.9708 3.73572C29.9906 3.68947 30.7081 3.99341 30.7213 4.05618C30.7279 4.09912 30.4469 4.14868 30.5164 4.18832C30.6453 4.261 30.8172 4.02314 30.9263 4.16189C31.0486 4.32047 31.2007 4.2577 31.3627 4.42949C31.4387 4.50877 31.3131 4.72681 31.4355 4.73672C31.6371 4.74994 31.7694 4.6211 31.9512 4.74663C32.1132 4.85896 32.0537 4.89861 31.8652 4.94155C31.7 4.97789 31.733 4.86227 31.5875 4.8061C30.9032 4.5319 31.2966 5.14638 30.8899 5.17281C30.7345 5.17941 30.4799 5.19263 30.3477 5.19593C30.1526 5.19593 30.1262 5.44701 30.3477 5.45362C30.6883 5.46022 30.9494 5.32477 31.2404 5.38094C31.5908 5.44701 31.5015 5.81702 31.8784 5.85996C32.0438 5.87649 32.7149 6.29606 32.8372 6.16722C32.9298 6.06481 32.2686 5.60889 32.2124 5.64853C32.3479 5.55933 32.6223 5.76085 32.7315 5.8038C32.9067 5.86987 33.4026 5.76746 33.1051 5.62871C32.9563 5.55933 33.0555 5.31817 32.8108 5.31486C32.7347 5.31486 32.3116 5.09352 32.4471 5.04727C32.5265 5.01754 32.4141 4.77967 32.5926 4.84574C32.8273 4.93164 32.9364 5.06709 33.1315 5.19924C33.3365 5.33469 33.8523 4.81271 33.8456 4.81271C33.7233 4.70038 33.4026 4.78958 33.3894 4.60788C33.3828 4.52859 33.0852 4.42949 33.0059 4.44931C32.9166 4.46913 32.586 4.34359 32.4934 4.31386C32.0438 4.15198 32.6058 4.15528 32.6223 4.12225C32.6653 4.04626 32.3876 4.08591 32.3777 4.02975C32.3612 3.95376 32.5992 4.00001 32.4802 3.8976C32.3248 3.75884 32.3711 3.88769 32.2322 3.88439C32.1562 3.88439 32.3215 3.75884 32.2223 3.7192C32.1198 3.67956 31.895 3.72581 31.8223 3.67956C31.7264 3.62009 31.4321 3.60688 31.4486 3.60688C31.3561 3.61348 31.5412 3.60027 31.4486 3.60688L31.452 3.59036Z" fill="white"/>
<path d="M31.7139 3.15659C32.0451 3.11365 31.6408 2.79587 31.3955 2.81305C31.2106 2.82593 31.0471 3.002 31.1461 3.13942C31.2708 3.3026 31.5461 3.17806 31.7096 3.15659C31.5633 3.17377 31.8559 3.13942 31.7096 3.15659H31.7139Z" fill="white"/>
<path d="M29.0202 6.0584C29.0891 5.78783 27.7469 5.58171 27.7641 5.35841C27.777 5.1437 27.377 5.64183 27.3511 5.71054C27.3426 5.72772 27.1189 6.17863 27.1016 6.13999C27.093 6.12279 27.7512 6.27312 27.7727 6.26452C27.9018 6.21298 28.0867 6.01115 28.2244 5.99825C28.3362 5.98535 28.9557 6.30317 29.0245 6.0584C28.9987 6.16143 29.0503 5.95531 29.0245 6.0584H29.0202Z" fill="white"/>
<path d="M36.3587 10.8551C36.462 10.8036 36.1522 10.7778 36.006 10.9581C35.9286 11.0526 35.7651 11.233 35.7694 11.3704C35.7823 11.6882 35.6619 11.525 35.4855 11.6839C35.1026 12.0318 35.6059 12.109 35.864 12.1434C35.8425 12.1434 36.6556 12.0747 36.591 12.1906C36.5394 12.2379 36.505 12.298 36.4878 12.3667C36.4577 12.1133 37.7654 12.7661 37.09 12.1734C37.0169 12.109 37.1717 11.9373 37.133 11.9201C36.7631 11.7612 37.1674 11.628 36.7072 11.6366C36.7588 11.6366 35.9888 11.2158 36.1135 11.3876C36.0361 11.2803 36.2727 10.9066 36.3587 10.8637C36.2426 10.9238 36.4749 10.8036 36.3587 10.8637V10.8551Z" fill="white"/>
<path d="M29.2054 6.86566C29.2958 6.85282 29.4764 6.58655 29.2485 6.59945C29.0205 6.61229 29.0678 6.88286 29.2054 6.86566Z" fill="white"/>
<path d="M23.2514 2.28797C23.3417 2.22786 23.1309 2.1205 23.0406 2.22356C22.9502 2.32662 23.161 2.35239 23.2514 2.28797Z" fill="white"/>
<path d="M24.0951 3.47322C24.194 3.52045 24.607 3.37874 24.7188 3.31862C24.8393 3.24562 25.1103 2.7346 24.8607 2.82478C24.779 2.85484 24.8995 2.98796 24.8091 3.00084C24.878 2.99225 24.4607 2.87202 24.4779 2.8849C24.4091 2.8076 25.106 2.68306 24.7661 2.60147C24.6457 2.57141 24.5726 2.41253 24.3316 2.57571C24.3446 2.60576 24.3704 2.62724 24.4134 2.64441C24.4048 2.6573 23.9402 2.64012 23.8585 2.66589C23.3982 2.82048 24.0563 2.79901 24.0649 2.83766C24.1209 3.15544 23.4627 2.8849 23.3724 2.98796C23.282 3.08243 23.9746 3.41309 24.0951 3.46892C23.8628 3.35727 24.3273 3.58057 24.0951 3.46892V3.47322Z" fill="white"/>
<path d="M28.0953 6.64663C28.2932 6.74966 28.6072 6.45765 28.5857 6.37606C28.5642 6.29017 27.8587 6.52203 28.0953 6.64663Z" fill="white"/>
<path d="M25.6559 2.06035C25.4882 1.98306 24.9204 2.20636 24.9891 2.24071C25.2602 2.37384 26.2668 2.33949 25.6559 2.06035C25.8624 2.15483 25.4495 1.96588 25.6559 2.06035Z" fill="white"/>
<path d="M26.1556 2.16335C26.1944 2.25782 26.7149 2.348 26.8525 2.275C27.0332 2.17623 27.33 2.29647 27.5924 2.30077C27.9322 2.30077 28.1172 2.23635 28.4011 2.1934C28.6549 2.15476 29.0464 2.36518 29.2915 2.17194C29.8809 1.70815 26.8998 2.09464 26.7019 1.90139C26.6675 1.86704 26.8912 1.79833 26.9213 1.77686C27.0375 1.69957 26.1169 1.69098 26.0825 1.68668C25.8287 1.66092 25.4286 1.48914 25.1318 1.63944C24.9727 1.71674 25.7083 1.81551 25.7986 1.80692C26.2847 1.77686 26.0782 1.9744 26.1599 2.16335C26.104 2.02593 26.2158 2.30077 26.1599 2.16335H26.1556Z" fill="white"/>
<path d="M22.3527 3.7863C22.3728 3.76967 22.9193 3.79296 22.5237 3.64992C22.4131 3.61 21.9269 3.53017 21.9638 3.41041C21.9974 3.28068 21.7694 3.09773 21.9638 2.968C22.4332 2.65863 21.6218 2.84492 21.6386 2.85823C21.6755 2.89814 21.8632 2.92475 21.8498 2.98796C21.8498 2.97797 21.2061 2.75178 21.4073 3.21415C21.4811 3.3838 21.2698 3.40376 21.243 3.22746C21.2329 3.17756 20.9412 2.94138 20.8742 3.06446C20.8407 3.12434 21.0351 3.0944 20.9916 3.17091C20.9815 3.19087 20.6764 3.19752 20.6898 3.23079C20.6697 3.17423 20.5356 2.92475 20.3311 3.13099C20.3244 3.13764 20.0864 3.38713 20.0864 3.23079C20.0864 3.24742 20.4652 2.90812 20.0562 3.04118C19.9489 3.07444 19.3756 3.35387 19.3387 3.35054C19.1007 3.32725 19.3655 3.63329 19.3588 3.58671C19.389 3.73308 19.6974 3.48027 19.8282 3.5468C19.8416 3.55345 19.1442 3.7231 19.3387 3.79961C19.4426 3.83953 20.4954 3.66655 20.4753 3.79961C20.4652 3.81957 19.2582 3.94264 19.4091 4.07903C19.5633 4.22207 19.8248 4.10231 20.026 4.13891C20.0964 4.14889 20.026 4.27197 20.1232 4.29857C20.264 4.33517 20.4853 4.31188 20.6496 4.26864C21.0016 4.1755 21.5179 3.86281 21.766 4.06573C21.8834 4.16219 22.2421 4.09899 22.403 4.02914C22.6779 3.90938 22.1247 3.87612 22.1381 3.90273C22.2019 3.85616 22.2756 3.81624 22.3527 3.7863C22.4131 3.7364 22.2924 3.8362 22.3527 3.7863Z" fill="white"/>
<path d="M10.5227 21.1184C10.484 21.127 10.5097 21.273 10.5356 21.2386C10.5786 21.1785 10.5614 21.1098 10.5227 21.1184Z" fill="white"/>
<path d="M10.6133 21.3332C10.5358 21.346 10.6003 21.6682 10.6219 21.6338C10.6606 21.578 10.794 21.3031 10.6133 21.3332C10.6778 21.3203 10.5487 21.346 10.6133 21.3332Z" fill="white"/>
<path d="M11.4561 9.95328C11.4431 10.0048 10.9657 10.4471 11.0775 10.6061C11.099 10.6361 11.2281 10.5459 11.2539 10.5159C11.4302 10.3054 11.3614 10.3484 11.3614 10.168C11.3614 10.1766 11.4475 10.0134 11.4561 9.94898C11.4475 10.0091 11.4647 9.88889 11.4561 9.94898V9.95328Z" fill="white"/>
<path d="M46.2309 7.07179C46.8847 7.15768 46.0932 6.06693 45.8051 6.18722C45.7792 6.19576 45.7276 6.44913 45.5943 6.29025C45.5039 6.18292 45.1856 6.32889 45.2114 6.3375C45.1684 6.27735 45.1168 6.23016 45.0566 6.19146C45.0652 6.19146 45.0049 6.59946 44.8415 6.41478C44.7554 6.31599 44.8415 6.26451 44.7812 6.19576C44.7339 6.14428 44.3252 5.92955 44.3726 6.00684C44.4414 6.04118 44.4758 6.08413 44.4715 6.13567C44.3424 6.10557 44.1489 6.02828 44.1575 6.24731C44.1618 6.36754 44.5877 6.30315 44.6651 6.37614C44.8372 6.53502 44.2865 6.54792 44.2865 6.55222C44.3898 6.70249 45.1082 6.66385 44.6221 6.89148C44.6909 6.85707 45.1942 7.12334 45.349 7.20923C45.6631 7.38101 45.9513 7.03315 46.2309 7.07179C46.3513 7.089 46.1105 7.05465 46.2309 7.07179Z" fill="white"/>
<path d="M47.9605 11.8041C48.309 11.8684 48.6488 11.6237 48.4294 11.0998C48.3563 10.9237 48.7047 11.0655 48.4208 10.6747C48.395 10.636 47.995 10.6317 47.995 10.6747C48.0208 10.7262 48.0552 10.7735 48.0939 10.8078C48.1154 10.9538 47.7885 10.8249 47.7497 10.8421C47.6766 10.8765 47.9261 11.3059 47.9261 11.3016C47.8874 11.4348 47.5906 11.7311 47.9605 11.7998V11.8041Z" fill="white"/>
<path d="M48.2793 9.54957C48.2406 9.49373 48.1287 9.72135 48.1804 9.73425C48.2535 9.7471 48.318 9.60542 48.2793 9.54957Z" fill="white"/>
<path d="M48.2662 9.85877C48.193 9.92745 48.4468 10.0391 48.4339 10.0649C48.3393 10.2538 48.4468 10.1722 48.477 10.344C48.4339 10.3869 48.3909 10.4256 48.3436 10.4599C48.3952 10.49 48.4339 10.4814 48.4641 10.4299C48.4727 10.4256 48.4855 10.5931 48.5544 10.5931C48.606 10.5931 48.6189 10.417 48.6361 10.4256C48.7135 10.4599 48.6232 10.8078 48.6275 10.8249C48.6576 10.9839 48.9157 10.8121 48.9286 10.8464C48.9545 10.8937 49.0835 11.4348 48.9759 11.4305C48.9673 11.4305 48.7695 11.3231 48.7996 11.4047C48.7738 11.3446 48.8813 11.7311 48.8727 11.6623C48.8899 11.7912 48.6662 11.7482 48.6921 11.8384C48.7265 11.9415 49.1308 12.0231 49.1351 12.0445C49.148 12.0746 48.5888 12.182 48.7308 12.4439C48.7652 12.4997 49.0878 12.3022 49.1609 12.3408C49.3244 12.4138 49.746 12.2249 49.7761 12.2549C49.7417 12.2635 49.7072 12.2421 49.6857 12.1863C49.6857 12.0445 49.9696 11.8684 49.7072 11.7268C49.6728 11.7182 49.647 11.7268 49.6298 11.7568C49.561 11.7225 49.5911 11.5679 49.5739 11.5593C49.475 11.5077 49.5094 11.1728 49.3717 11.0912C49.1867 10.9796 49.2513 10.5931 48.9673 10.5458C49.0061 10.5501 49.1093 10.1121 49.1007 10.0219C49.0921 9.89741 48.7695 9.9575 48.7178 9.88451C48.6748 9.82012 48.9286 9.64834 48.8383 9.52811C48.8297 9.51091 48.4727 9.57099 48.4941 9.72993C48.5415 10.0391 48.3221 9.81152 48.2791 9.85017C48.2317 9.89311 48.3264 9.80722 48.2791 9.85017L48.2662 9.85877Z" fill="white"/>
<path d="M48.7562 11.6946C48.7562 11.6946 48.782 11.9351 48.8422 11.7633C48.8508 11.7375 48.8938 11.4541 48.8766 11.424C48.7518 11.205 48.7432 11.6903 48.7518 11.6989C48.7218 11.6731 48.782 11.7246 48.7518 11.6989L48.7562 11.6946Z" fill="white"/>
<path d="M49.3583 2.38024C49.3583 2.38024 49.3368 2.38024 49.3239 2.38024C49.3067 2.37165 49.3411 2.32012 49.3583 2.26859V2.19129C49.3583 2.19129 49.3454 2.17411 49.3368 2.16553C49.3024 2.13546 49.1045 2.02381 49.0658 2.00664C48.8937 1.92504 49.1304 2.54772 49.1217 2.5606C49.1217 2.57348 48.911 2.31583 48.9023 2.24711C48.8507 1.83916 48.6786 2.34588 48.6786 2.34588C48.6657 2.34588 48.5367 2.17411 48.4894 2.16123C48.5238 2.16982 48.6916 2.11829 48.6615 2.08393C48.584 1.99805 48.3302 2.06675 48.2313 2.0324C48.1968 2.01952 48.042 2.08393 48.042 2.13546C48.0463 2.44895 48.1925 2.26859 48.3001 2.30724C48.2012 2.27288 48.227 2.76673 48.5539 2.83973C48.6012 2.85261 48.911 2.59495 48.9196 2.64219C48.8937 2.68084 48.8851 2.72808 48.8937 2.7796C48.941 2.80967 49.1002 2.70231 49.1217 2.73237C49.2293 2.92991 48.5453 2.95567 48.6184 3.03727C48.6615 3.0845 49.1561 3.17039 49.1734 3.1618C49.126 3.18327 48.67 3.13174 48.6657 3.20904C48.6615 3.37222 48.9669 3.44522 49.0271 3.48817C49.0099 3.53111 48.9841 3.54828 48.9454 3.55258C48.9454 3.55258 49.2207 3.86606 49.2034 3.67712C49.1948 3.54399 49.2809 3.46669 49.354 3.39798V2.38883L49.3583 2.38024Z" fill="white"/>
<path d="M48.1621 2.64656C48.2095 2.6938 48.2568 2.73674 48.3041 2.77539C48.2395 2.7711 48.1449 2.42326 48.0244 2.44044C47.9384 2.45332 48.1363 2.63368 48.1621 2.64656C48.2138 2.66803 48.1105 2.62509 48.1621 2.64656Z" fill="white"/>
<path d="M48.0466 9.62909C48.0595 9.68924 47.952 9.79227 47.952 9.79227C47.9348 9.75362 47.9176 9.71498 47.8961 9.68494C47.8574 9.68494 47.8703 9.85242 47.8746 9.90396C47.8832 10.0027 47.9864 9.81807 48.0295 9.95545C48.0509 10.0242 47.9563 10.0628 47.9477 10.0843C47.9004 10.2003 48.2876 10.4751 48.3349 10.4364C48.3908 10.3935 48.4553 10.329 48.4897 10.2432C48.4854 10.2561 48.6102 10.0886 48.5973 10.0929C48.6102 10.0929 48.9285 11.3296 48.9242 11.4241C48.9586 11.9437 49.1436 11.2609 49.2468 11.4929C49.264 11.5315 49.3071 11.2523 49.2985 11.2523C49.2855 11.291 49.2683 11.3125 49.2468 11.3082C49.2167 11.0119 49.2855 10.7971 49.3629 10.6469V10.1358C49.3629 10.1358 49.3415 10.1101 49.3328 10.1058C49.2468 10.0413 49.3328 9.68924 49.3328 9.61195C49.3328 9.5432 49.3458 9.48312 49.3629 9.43587V6.81637C49.2985 6.79916 49.221 6.79916 49.2339 6.9323C49.2339 6.96664 49.3672 6.9452 49.3458 7.11262C49.3458 7.10408 49.1221 7.01819 49.1264 7.02679C49.135 6.96664 49.1436 6.9108 49.1565 6.85501C49.1479 6.83781 48.8296 7.20711 48.7693 7.21141C48.8338 7.21571 49.1522 7.06113 49.2124 7.17706C49.2124 7.17706 49.1995 7.34454 49.1952 7.34454C49.1436 7.35314 49.0877 7.14702 49.0188 7.34454C48.9844 7.43473 48.8124 7.72244 48.8253 7.80833C48.8167 7.76969 48.7263 8.0574 48.722 8.0617C48.6833 8.10465 48.7737 8.27642 48.6919 8.20768C48.6661 8.18623 48.58 8.20338 48.5586 8.20768C48.5413 8.20768 48.6876 8.4224 48.6403 8.431C48.4983 8.45674 48.4725 8.56844 48.3563 8.67147C48.3478 8.68007 48.2359 8.4396 48.2359 8.56414C48.2359 8.83034 48.1542 8.55123 48.0638 8.74022C48.0811 8.7831 48.1025 8.8132 48.1241 8.83894C48.0552 8.8003 47.8488 8.86899 47.8961 8.95058C47.7842 8.76166 47.8531 9.1825 47.8531 9.1653C47.8531 9.22975 47.8703 9.44017 47.8401 9.48742C47.7671 9.62049 48.0509 9.67204 48.0552 9.62049L48.0466 9.62909Z" fill="white"/>
<path d="M49.3587 18.6986C49.3286 18.6342 49.2984 18.5698 49.2727 18.5655C49.1866 18.5526 49.1651 18.0931 49.0146 18.136C48.9844 18.1446 48.7736 17.8526 48.765 17.7753C48.7565 17.6508 48.8683 17.6379 48.8683 17.4704C48.8683 17.5306 48.8296 16.9809 48.8554 17.0067C48.7822 16.7662 48.2187 16.8822 48.0037 16.895C47.909 16.8993 47.7283 16.8521 47.638 16.9552C47.5519 17.0539 47.3369 17.3159 47.2293 17.3073C46.8551 17.2858 46.6658 16.7662 46.4809 17.4146C46.3776 17.7882 45.9475 17.7453 45.913 18.295C45.8958 18.5784 46.0119 18.6342 45.8485 18.8875C45.7022 19.1109 45.4785 19.171 45.328 19.3685C45.0785 19.6906 44.5666 20.7513 44.5278 21.2365C44.5107 21.447 44.6483 21.5844 44.644 21.8163C44.6742 21.9365 44.6956 22.0568 44.7129 22.1813C44.6913 22.396 44.5838 22.5463 44.5623 22.7696C44.5322 23.0617 44.4719 23.6328 44.6483 23.8475C44.8161 24.0493 45.1 24.3585 45.1946 24.6548C45.3538 25.1487 45.7926 25.5695 46.1496 25.7112C46.2959 25.7671 46.5755 25.5265 46.7088 25.4707C46.9712 25.359 47.1003 25.5566 47.3369 25.3419C47.4057 25.2861 47.8875 24.775 47.9176 24.8738C47.9778 25.0156 48.2402 24.818 48.2187 25.1444C48.2015 25.4578 48.408 25.2517 48.4811 25.2217C48.8425 25.067 48.6231 25.883 48.6747 26.2136C48.6833 26.2738 48.5241 26.4455 48.5758 26.5915C48.6317 26.7333 48.6833 26.8836 48.7306 27.0295C48.8597 27.4203 48.9672 27.7252 48.95 28.2835C48.9371 28.6399 49.0576 28.7 48.9156 29.0994C48.8597 29.254 48.7522 29.7693 48.7478 29.9282C48.7392 30.5251 48.907 30.8042 48.9801 31.3367C49.0146 31.5729 49.0016 31.9508 49.0146 32.2171C49.0317 32.5606 49.1909 32.6937 49.2468 33.0072C49.2511 33.033 49.32 33.2219 49.363 33.3808V18.6986H49.3587Z" fill="white"/>
<path d="M45.9295 15.9932C45.9768 16.0747 46.1188 16.6115 46.1059 16.6072C46.3812 16.676 46.3726 16.5299 46.5705 16.8606C46.6135 16.9164 47.233 16.7919 47.2415 16.706C47.2501 16.6631 47.4308 16.3539 47.4566 16.3195C47.5685 16.1778 47.4308 15.9202 47.5728 15.7355C47.6545 15.6325 47.7276 15.598 47.8094 15.5036C47.947 15.3404 47.8438 15.1601 47.9298 15.014C48.0502 14.8036 48.1965 15.1815 48.3083 15.1429C48.4116 15.1085 48.4847 14.8724 48.5794 14.8422C48.7385 14.7951 48.9192 15.7312 49.0439 15.8686C49.0741 15.8987 49.2203 16.195 49.2246 16.3066C49.2246 16.3625 49.2462 16.8262 49.2418 16.8262C49.259 16.8305 49.3192 16.487 49.3063 16.4483C49.2246 16.1993 49.3192 16.2852 49.3622 16.3367V16.2422C49.3235 16.0962 49.2462 15.8643 49.2462 15.86C49.2289 15.7441 49.1945 15.7784 49.1601 15.7011C49.0955 15.5551 49.0998 15.3404 49.0439 15.1858C48.8288 14.649 49.0525 14.4815 49.1601 15.0226C49.1816 15.1214 49.2935 15.3833 49.3666 15.6023V12.0596C49.3666 12.0596 49.3236 12.0338 49.2805 12.0553C49.2547 12.0682 49.0912 12.2141 49.0655 12.1755C48.988 12.051 49.0268 11.9909 49.0009 11.9093C48.9966 11.8878 48.859 11.9264 48.8504 11.9307C48.7084 12.1025 48.7901 11.8878 48.7385 11.8362C48.6955 11.7933 48.5407 11.7375 48.545 11.5185C48.545 11.4369 48.6826 11.7332 48.6912 11.6001C48.7041 11.4154 48.6224 11.4884 48.588 11.4026C48.5493 11.2866 48.6611 11.2651 48.6826 11.2351C48.6611 11.2222 48.588 10.6768 48.6181 10.7412C48.5536 10.5995 48.4804 10.9345 48.4761 10.9388C48.4417 10.986 48.3126 10.7412 48.3428 11.1019C48.36 11.278 48.4331 11.6173 48.4761 11.7891C48.5493 12.0853 48.2997 11.9651 48.1922 11.9436C47.9642 11.8964 47.9986 12.3172 47.8008 12.4718C47.7233 12.5363 47.5555 12.4718 47.5814 12.708C47.6029 12.8583 47.3017 13.0086 47.2071 12.9184C47.0222 12.7295 47.091 12.8197 47.1211 13.0687C47.1512 13.3392 46.863 13.0086 46.7985 13.0301C46.2478 13.1976 47.0566 13.365 47.0738 13.6485C47.0996 13.9147 47.3104 13.8975 47.263 14.2325C47.2243 14.4988 47.3319 14.9024 47.078 14.7779C46.9447 14.7049 45.9768 14.3828 45.9209 14.6834C45.9252 14.649 46.05 15.2803 46.0371 15.2503C46.136 15.4692 45.865 15.8514 45.9381 15.9889L45.9295 15.9932Z" fill="white"/>
<path d="M27.3891 20.1458C27.2041 19.828 27.4149 20.7513 27.5052 20.5666C27.5139 20.5538 27.402 20.1673 27.3891 20.1458C27.4536 20.2532 27.3246 20.0384 27.3891 20.1458Z" fill="white"/>
<path d="M32.4012 24.9297C32.4915 25.0113 32.7927 24.8695 32.6163 24.7235C32.4829 24.6119 32.2979 24.8395 32.4012 24.9297C32.4356 24.964 32.3625 24.891 32.4012 24.9297Z" fill="white"/>
<path d="M48.5367 15.8429C48.5109 15.946 48.5926 16.646 48.7045 16.3153C48.7905 16.0576 48.6142 15.5595 48.5367 15.8429C48.5496 15.7914 48.5195 15.9074 48.5367 15.8429Z" fill="white"/>
<path d="M49.1519 16.7619C49.1046 16.7791 48.8637 16.749 49.0744 16.9594C49.225 17.1183 49.139 17.1613 49.2121 16.7963C49.1949 16.7447 49.1777 16.7361 49.1519 16.7619C49.1992 16.7447 49.1046 16.7791 49.1519 16.7619Z" fill="white"/>
</g>
<g filter="url(#filter0_d_2277_4070)">
<path d="M8.01668 8.72089C2.6505 12.341 7.32165 18.3976 10.3201 20.5487C4.5561 13.9557 12.4588 11.4067 17.1894 10.9707C38.6734 8.94741 54.146 15.4765 59.1968 18.994C43.4331 2.5985 13.737 4.86181 8.01668 8.72089Z" fill="#020982"/>
</g>
<g filter="url(#filter1_d_2277_4070)">
<path d="M52.25 31.8776C57.7971 28.419 52.3805 23.0573 49.3633 20.8702C55.1512 27.5565 47.1583 30.0913 42.3792 30.5082C20.6746 32.445 5.08283 25.7754 0 22.1985C15.8369 38.8326 46.0133 35.766 52.25 31.8776Z" fill="#020982"/>
</g>
<g style="mix-blend-mode:color-dodge">
<path d="M49.3393 20.8649C51.6644 23.0669 53.0661 26.5134 49.1535 28.9209C43.1553 32.6118 17.8092 32.5321 2.04668 23.4803C1.45579 23.1468 0.934314 22.8286 0.484375 22.5328C0.993482 22.8589 1.51462 23.1747 2.04668 23.4803C8.3803 27.0544 22.6882 32.3741 42.3389 30.5234C47.4043 29.9674 55.1033 27.458 49.3393 20.8649Z" fill="#DADEFF"/>
</g>
<g style="mix-blend-mode:color-dodge">
<path d="M10.3198 20.5486C7.9947 18.3466 6.59287 14.9002 10.5055 12.4926C16.0277 9.0947 37.966 8.98221 53.714 16.0544C56.1174 17.1015 57.9662 18.1371 59.1965 18.9939C57.4904 17.9008 55.649 16.9234 53.714 16.0544C46.251 12.803 33.4397 9.44016 17.1891 10.9706C12.4585 11.4066 4.55581 13.9556 10.3198 20.5486Z" fill="#DADEFF"/>
</g>
<path d="M71.6808 26.9048C72.4587 26.9048 73.0901 26.8194 73.5749 26.6483C74.4954 26.3207 74.9556 25.7116 74.9556 24.8212C74.9556 24.3013 74.7267 23.8987 74.2704 23.6138C73.8141 23.336 73.0972 23.0902 72.1197 22.8766L70.4506 22.5026C68.8093 22.1321 67.6749 21.7297 67.0475 21.2951C65.9845 20.5686 65.4529 19.4324 65.4529 17.8866C65.4529 16.4762 65.9671 15.3044 66.9937 14.3712C68.0211 13.438 69.5302 12.9714 71.52 12.9714C73.1828 12.9714 74.5983 13.4131 75.7684 14.2964C76.9455 15.1726 77.5626 16.4476 77.6196 18.1216H74.4526C74.3955 17.1743 73.9813 16.5011 73.2113 16.1022C72.6972 15.8386 72.0587 15.7069 71.2959 15.7069C70.4467 15.7069 69.7694 15.8778 69.2624 16.2197C68.7562 16.5616 68.5027 17.0389 68.5027 17.6516C68.5027 18.2143 68.7523 18.6345 69.2521 18.9123C69.5729 19.0976 70.2573 19.3148 71.3062 19.5641L74.024 20.2159C75.2154 20.5008 76.1145 20.882 76.7205 21.3593C77.6624 22.1001 78.1329 23.1722 78.1329 24.5755C78.1329 26.0144 77.5808 27.2111 76.4749 28.1657C75.3762 29.1131 73.8212 29.5868 71.8092 29.5868C69.7551 29.5868 68.1391 29.1202 66.962 28.187C65.7849 27.2467 65.1963 25.9574 65.1963 24.3191H68.3419C68.4425 25.0385 68.6382 25.5763 68.9305 25.9325C69.466 26.5807 70.3825 26.9048 71.6808 26.9048Z" fill="#10185F"/>
<path d="M90.017 22.2726H82.3542V26.3218H91.0874V29.153H79.1328V13.4052H90.7016V16.1936H82.3542V19.5376H90.017V22.2726Z" fill="#10185F"/>
<path d="M104.855 13.4052V16.1936H100.139V29.153H96.8244V16.1936H92.0879V13.4052H104.855Z" fill="#10185F"/>
<path d="M114.826 25.9158H109.015L107.924 29.153H104.479L110.107 13.4052H113.831L119.417 29.153H115.843L114.826 25.9158ZM113.906 23.2021L111.937 17.0056L109.904 23.2021H113.906Z" fill="#10185F"/>
<path d="M126.793 29.0746V13.9572H128.223V29.0746H126.793Z" fill="#10185F"/>
<path d="M132.166 15.8889H132.123V29.0746H130.693V13.9572H132.312L141.059 27.1639H141.101V13.9572H142.531V29.0746H140.87L132.166 15.8889Z" fill="#10185F"/>
<path d="M145.002 13.9572H156.02V15.175H151.226V29.0746H149.796V15.175H145.002V13.9572Z" fill="#10185F"/>
<path d="M158.49 29.0746V13.9572H168.561V15.175H159.92V20.6341H167.721V21.8519H159.92V27.8569H168.772V29.0746H158.49Z" fill="#10185F"/>
<path d="M177.13 20.991C177.663 20.991 178.154 20.935 178.603 20.823C179.065 20.711 179.464 20.5361 179.801 20.2981C180.137 20.0462 180.404 19.7312 180.6 19.3532C180.796 18.9753 180.894 18.5204 180.894 17.9885C180.894 17.4286 180.789 16.9667 180.579 16.6027C180.383 16.2387 180.11 15.9519 179.759 15.7419C179.423 15.5319 179.03 15.3849 178.581 15.3009C178.147 15.217 177.691 15.175 177.215 15.175H172.674V20.991H177.13ZM172.674 22.2088V29.0746H171.243V13.9572H177.173C178.841 13.9572 180.117 14.2721 181 14.902C181.883 15.5179 182.324 16.5257 182.324 17.9255C182.324 18.8774 182.128 19.6332 181.735 20.1931C181.357 20.7531 180.733 21.2289 179.864 21.6209C180.313 21.7749 180.663 21.9988 180.915 22.2928C181.168 22.5867 181.357 22.9227 181.483 23.3006C181.609 23.6786 181.686 24.0775 181.714 24.4974C181.757 24.9173 181.785 25.3233 181.799 25.7152C181.812 26.2891 181.833 26.765 181.862 27.143C181.903 27.5209 181.946 27.8289 181.988 28.0668C182.044 28.3048 182.107 28.4937 182.177 28.6337C182.247 28.7597 182.331 28.8577 182.429 28.9277V29.0746H180.852C180.698 28.8227 180.586 28.4728 180.516 28.0248C180.46 27.5769 180.411 27.108 180.369 26.6181C180.341 26.1281 180.313 25.6522 180.285 25.1903C180.271 24.7284 180.236 24.3505 180.18 24.0565C180.095 23.6506 179.955 23.3286 179.759 23.0907C179.577 22.8387 179.353 22.6497 179.086 22.5237C178.82 22.3977 178.518 22.3138 178.182 22.2717C177.859 22.2298 177.523 22.2088 177.173 22.2088H172.674Z" fill="#10185F"/>
<path d="M186.371 15.8889H186.329V29.0746H184.899V13.9572H186.518L195.266 27.1639H195.307V13.9572H196.737V29.0746H195.076L186.371 15.8889Z" fill="#10185F"/>
<path d="M199.208 29.0746L205.159 13.9572H206.778L212.581 29.0746H211.109L209.364 24.3294H202.467L200.68 29.0746H199.208ZM202.951 23.1116H208.88L205.915 15.175L202.951 23.1116Z" fill="#10185F"/>
<path d="M212.294 13.9572H223.311V15.175H218.517V29.0746H217.087V15.175H212.294V13.9572Z" fill="#10185F"/>
<path d="M225.782 29.0746V13.9572H227.212V29.0746H225.782Z" fill="#10185F"/>
<path d="M229.683 21.5369C229.683 20.4311 229.83 19.3953 230.124 18.4294C230.433 17.4635 230.881 16.6237 231.47 15.9098C232.058 15.182 232.787 14.608 233.657 14.1881C234.526 13.7682 235.528 13.5582 236.664 13.5582C237.841 13.5582 238.871 13.7682 239.755 14.1881C240.651 14.5941 241.395 15.1609 241.983 15.8888C242.586 16.6027 243.034 17.4496 243.329 18.4294C243.637 19.3953 243.791 20.4311 243.791 21.5369C243.791 22.6287 243.637 23.6575 243.329 24.6234C243.034 25.5752 242.593 26.4151 242.004 27.143C241.415 27.8569 240.68 28.4237 239.796 28.8437C238.913 29.2636 237.89 29.4736 236.727 29.4736C235.563 29.4736 234.54 29.2636 233.657 28.8437C232.774 28.4237 232.038 27.8569 231.449 27.143C230.86 26.4151 230.419 25.5752 230.124 24.6234C229.83 23.6575 229.683 22.6287 229.683 21.5369ZM236.748 28.2558C237.729 28.2558 238.57 28.0738 239.27 27.7098C239.986 27.332 240.567 26.835 241.016 26.2191C241.478 25.6032 241.815 24.8893 242.025 24.0775C242.25 23.2656 242.362 22.4187 242.362 21.5369C242.362 20.487 242.229 19.5492 241.962 18.7233C241.71 17.8835 241.339 17.1696 240.848 16.5817C240.357 15.9938 239.761 15.5459 239.061 15.2379C238.36 14.93 237.575 14.776 236.705 14.776C235.739 14.776 234.897 14.965 234.183 15.3429C233.481 15.7208 232.9 16.2248 232.437 16.8546C231.989 17.4705 231.653 18.1844 231.428 18.9963C231.218 19.8081 231.112 20.6551 231.112 21.5369C231.112 22.4327 231.218 23.2866 231.428 24.0985C231.653 24.9103 231.989 25.6242 232.437 26.2401C232.9 26.856 233.481 27.3459 234.183 27.7098C234.897 28.0738 235.752 28.2558 236.748 28.2558Z" fill="#10185F"/>
<path d="M247.733 15.8889H247.691V29.0746H246.262V13.9572H247.881L256.627 27.1639H256.67V13.9572H258.099V29.0746H256.438L247.733 15.8889Z" fill="#10185F"/>
<path d="M260.569 29.0746L266.52 13.9572H268.139L273.942 29.0746H272.47L270.725 24.3294H263.828L262.042 29.0746H260.569ZM264.312 23.1116H270.242L267.277 15.175L264.312 23.1116Z" fill="#10185F"/>
<path d="M276.413 29.0746V13.9572H277.843V27.8569H285.959V29.0746H276.413Z" fill="#10185F"/>
</g>
<defs>
<filter id="filter0_d_2277_4070" x="3.5625" y="5.94604" width="57.6338" height="18.6027" filterUnits="userSpaceOnUse" color-interpolation-filters="sRGB">
<feFlood flood-opacity="0" result="BackgroundImageFix"/>
<feColorMatrix in="SourceAlpha" type="matrix" values="0 0 0 0 0 0 0 0 0 0 0 0 0 0 0 0 0 0 127 0" result="hardAlpha"/>
<feOffset dy="2"/>
<feGaussianBlur stdDeviation="1"/>
<feComposite in2="hardAlpha" operator="out"/>
<feColorMatrix type="matrix" values="0 0 0 0 0.334088 0 0 0 0 0.348431 0 0 0 0 0.350962 0 0 0 0.25 0"/>
<feBlend mode="normal" in2="BackgroundImageFix" result="effect1_dropShadow_2277_4070"/>
<feBlend mode="normal" in="SourceGraphic" in2="effect1_dropShadow_2277_4070" result="shape"/>
</filter>
<filter id="filter1_d_2277_4070" x="-2" y="20.8702" width="58.6465" height="18.0747" filterUnits="userSpaceOnUse" color-interpolation-filters="sRGB">
<feFlood flood-opacity="0" result="BackgroundImageFix"/>
<feColorMatrix in="SourceAlpha" type="matrix" values="0 0 0 0 0 0 0 0 0 0 0 0 0 0 0 0 0 0 127 0" result="hardAlpha"/>
<feOffset dy="2"/>
<feGaussianBlur stdDeviation="1"/>
<feComposite in2="hardAlpha" operator="out"/>
<feColorMatrix type="matrix" values="0 0 0 0 0.334088 0 0 0 0 0.348431 0 0 0 0 0.350962 0 0 0 0.25 0"/>
<feBlend mode="normal" in2="BackgroundImageFix" result="effect1_dropShadow_2277_4070"/>
<feBlend mode="normal" in="SourceGraphic" in2="effect1_dropShadow_2277_4070" result="shape"/>
</filter>
<radialGradient id="paint0_radial_2277_4070" cx="0" cy="0" r="1" gradientTransform="matrix(3.37281 17.5292 -17.5739 3.37186 26.3567 23.0015)" gradientUnits="userSpaceOnUse">
<stop stop-color="#6D9BFF"/>
<stop offset="1" stop-color="#00126E"/>
</radialGradient>
<clipPath id="clip0_2277_4070">
<rect width="285.535" height="42.5582" fill="white"/>
</clipPath>
</defs>
</svg>
